<svg width="351" height="294" viewBox="0 0 351 294" fill="none" xmlns="http://www.w3.org/2000/svg">
    <path opacity="0.1"
          d="M176 250C245.036 250 301 198.988 301 136.061C301 73.135 245.036 22.123 176 22.123C106.964 22.123 51 73.135 51 136.061C51 198.988 106.964 250 176 250Z"
          fill="#8C68F8"/>
    <path
        d="M134.712 64.4914C134.642 64.4913 134.573 64.4737 134.514 64.4405C134.454 64.4074 134.406 64.36 134.374 64.3035C134.342 64.2469 134.328 64.1835 134.332 64.1201C134.337 64.0566 134.361 63.9956 134.402 63.9438C134.472 63.8528 141.353 54.7851 133.671 46.5187C132.312 45.0476 130.615 43.8655 128.701 43.0551C126.787 42.2448 124.702 41.8258 122.592 41.8276H122.49C123.22 44.1376 123.09 46.1914 122.057 47.767C121.617 48.479 120.967 49.0649 120.181 49.4585C119.395 49.8522 118.505 50.038 117.609 49.9951C116.868 49.9398 116.161 49.6887 115.574 49.2724C114.987 48.8562 114.546 48.293 114.305 47.6518C113.46 45.6431 114.343 43.6954 116.67 42.4402C118.144 41.6991 119.782 41.2698 121.463 41.1838C120.916 39.8623 120.206 38.6021 119.344 37.4281C116.571 33.5668 111.515 30.8941 105.474 30.0949C100.355 29.4174 95.4488 30.215 92.9736 32.1258C92.8966 32.1853 92.7967 32.2145 92.6961 32.2069C92.5954 32.1993 92.5022 32.1556 92.4369 32.0854C92.3717 32.0152 92.3397 31.9242 92.348 31.8324C92.3563 31.7407 92.4043 31.6557 92.4813 31.5962C95.1157 29.5625 100.258 28.7029 105.583 29.4081C111.841 30.2358 117.088 33.0205 119.982 37.048C120.92 38.3252 121.683 39.7022 122.254 41.1484C124.53 41.0986 126.789 41.5149 128.866 42.3666C130.942 43.2183 132.782 44.4837 134.25 46.0696C142.32 54.7525 135.095 64.2502 135.021 64.345C134.986 64.3901 134.94 64.4269 134.886 64.4524C134.832 64.4779 134.772 64.4912 134.712 64.4914ZM121.71 41.8543C120.08 41.9173 118.489 42.3223 117.059 43.0378C115.05 44.1216 114.306 45.7128 115.017 47.4037C115.209 47.9218 115.563 48.3775 116.036 48.7151C116.508 49.0526 117.078 49.2573 117.676 49.3041C118.429 49.3348 119.176 49.1741 119.834 48.8398C120.493 48.5055 121.036 48.0109 121.404 47.4113C122.353 45.9641 122.441 44.0408 121.71 41.8543Z"
        fill="#292A2E"/>
    <path
        d="M86.4033 37.7242C85.7569 37.9006 85.0606 37.8402 84.4624 37.5556C83.8643 37.2711 83.4117 36.7849 83.2009 36.2007C82.9901 35.6165 83.0378 34.9804 83.3339 34.4278C83.63 33.8752 84.1511 33.4498 84.7862 33.2421C85.4212 33.0345 86.1202 33.061 86.7341 33.316C87.348 33.5711 87.8285 34.0345 88.0732 34.6076C88.3178 35.1808 88.3074 35.8183 88.0441 36.3845C87.7807 36.9507 87.2853 37.4009 86.6633 37.6391C86.5783 37.6716 86.4915 37.7 86.4033 37.7242ZM85.1373 33.866C85.0756 33.8831 85.0148 33.903 84.9553 33.9257C84.5167 34.094 84.1676 34.4116 83.9822 34.8111C83.7968 35.2105 83.7898 35.6601 83.9627 36.0642C84.1356 36.4683 84.4748 36.7948 84.9079 36.9743C85.3411 37.1539 85.834 37.1721 86.2817 37.0253C86.7294 36.8784 87.0965 36.5781 87.3049 36.1882C87.5132 35.7982 87.5464 35.3496 87.3972 34.9377C87.248 34.5259 86.9283 34.1834 86.5062 33.9832C86.0841 33.783 85.5929 33.741 85.1373 33.866Z"
        fill="#292A2E"/>
    <path
        d="M86.3978 32.2833C85.7858 32.4497 85.1278 32.4041 84.5505 32.1552C83.9731 31.9062 83.517 31.4715 83.27 30.9346C83.0719 30.5042 83.0182 30.0299 83.1158 29.5717C83.2135 29.1135 83.458 28.6919 83.8184 28.3604C84.1789 28.0288 84.6391 27.8022 85.1409 27.7091C85.6427 27.6159 86.1635 27.6605 86.6375 27.8372C87.1115 28.0139 87.5173 28.3148 87.8037 28.7018C88.0901 29.0887 88.2442 29.5444 88.2465 30.0112C88.2487 30.4779 88.0991 30.9348 87.8164 31.3241C87.5338 31.7133 87.1309 32.0174 86.6586 32.1979C86.5733 32.2304 86.4863 32.2589 86.3978 32.2833ZM85.1334 28.4262C85.0711 28.4432 85.0098 28.4633 84.9498 28.4862C84.5031 28.6572 84.1491 28.9828 83.9657 29.3916C83.7823 29.8003 83.7845 30.2587 83.9717 30.666C84.1083 30.9629 84.3363 31.2174 84.6282 31.3986C84.9201 31.5798 85.2634 31.6801 85.6165 31.6872C85.9696 31.6944 86.3174 31.6081 86.6178 31.4389C86.9183 31.2697 87.1585 31.0247 87.3094 30.7337C87.4603 30.4426 87.5155 30.1179 87.4682 29.7989C87.421 29.4799 87.2733 29.1802 87.0431 28.936C86.8129 28.6919 86.51 28.5137 86.1711 28.4232C85.8322 28.3327 85.4717 28.3339 85.1334 28.4262Z"
        fill="#292A2E"/>
    <path
        d="M85.66 34.7375C87.5298 34.7375 89.0456 33.8147 89.0456 32.6764C89.0456 31.538 87.5298 30.6152 85.66 30.6152C83.7902 30.6152 82.2744 31.538 82.2744 32.6764C82.2744 33.8147 83.7902 34.7375 85.66 34.7375Z"
        fill="white"/>
    <path
        d="M87.1571 34.889C86.6718 35.02 86.1681 35.0859 85.6619 35.0847C83.55 35.0847 81.8945 34.0297 81.8926 32.6793C81.8907 31.329 83.545 30.2701 85.6566 30.2684C86.5772 30.2523 87.483 30.4815 88.2628 30.9278C88.6129 31.0941 88.9063 31.3448 89.1112 31.6524C89.3161 31.9601 89.4246 32.313 89.4249 32.6729C89.4252 33.0328 89.3173 33.3859 89.113 33.6939C88.9087 34.0019 88.6157 34.2529 88.2659 34.4198C87.9238 34.6254 87.5502 34.7835 87.1571 34.889ZM84.3933 31.1304C83.376 31.4081 82.6544 32.0071 82.6552 32.6804C82.6552 33.6098 84.0324 34.3934 85.6612 34.3924C86.4314 34.4071 87.1897 34.2169 87.8432 33.8451C88.0884 33.7421 88.2961 33.5773 88.4415 33.37C88.587 33.1627 88.6642 32.9218 88.664 32.6757C88.6637 32.4297 88.5861 32.1888 88.4402 31.9818C88.2943 31.7748 88.0863 31.6102 87.8409 31.5077C87.1867 31.137 86.4282 30.9482 85.6581 30.9642C85.2299 30.9634 84.8038 31.0194 84.3933 31.1304Z"
        fill="#292A2E"/>
    <path d="M86.4902 34.6747L86.4103 30.6666L85.3168 30.626L85.2402 34.7215L86.4902 34.6747Z"
          fill="#292A2E"/>
    <path
        d="M81.1679 33.5483C81.3609 33.5483 81.5174 33.4057 81.5174 33.2297C81.5174 33.0538 81.3609 32.9111 81.1679 32.9111C80.9748 32.9111 80.8184 33.0538 80.8184 33.2297C80.8184 33.4057 80.9748 33.5483 81.1679 33.5483Z"
        fill="#292A2E"/>
    <path
        d="M81.4413 31.8437C81.6344 31.8437 81.7908 31.7011 81.7908 31.5251C81.7908 31.3492 81.6344 31.2065 81.4413 31.2065C81.2483 31.2065 81.0918 31.3492 81.0918 31.5251C81.0918 31.7011 81.2483 31.8437 81.4413 31.8437Z"
        fill="#292A2E"/>
    <path
        d="M197.451 46.0765C197.369 46.0765 197.29 46.0527 197.225 46.0085C197.159 45.9643 197.111 45.9022 197.087 45.8311C195.824 41.5325 195.487 37.0515 196.095 32.6359C197.079 26.1808 200.984 17.7089 214.001 13.9993C215.833 13.4625 217.711 13.07 219.616 12.8259C220.229 9.33565 222.563 5.54621 227.779 2.93292C240.177 -3.27651 248.552 2.29469 248.635 2.35161C248.716 2.40683 248.769 2.48905 248.783 2.58017C248.797 2.67129 248.771 2.76384 248.711 2.83748C248.65 2.91111 248.56 2.95979 248.46 2.97281C248.36 2.98583 248.259 2.96211 248.178 2.90689C248.099 2.85275 240.095 -2.44359 228.147 3.54164C223.271 5.98384 221.038 9.48905 220.404 12.743C226.145 12.2276 228.894 13.9733 230.128 15.2917C230.892 16.0845 231.383 17.0645 231.54 18.1098C231.697 19.1551 231.513 20.2194 231.011 21.1701C230.614 21.9381 229.971 22.5784 229.166 23.0065C228.362 23.4345 227.434 23.6303 226.505 23.5679C223.299 23.3964 220.645 20.9379 219.746 17.3043C219.449 16.0743 219.37 14.8089 219.512 13.5561C217.72 13.7908 215.953 14.1612 214.229 14.6636C204.084 17.5549 198.238 23.6348 196.849 32.7335C196.253 37.0488 196.582 41.4284 197.815 45.6299C197.832 45.6817 197.836 45.7366 197.826 45.7901C197.816 45.8436 197.792 45.8942 197.757 45.9379C197.722 45.9815 197.675 46.017 197.622 46.0414C197.569 46.0659 197.51 46.0786 197.451 46.0786V46.0765ZM220.289 13.4694C220.13 14.6983 220.198 15.9427 220.489 17.1512C221.312 20.4753 223.691 22.7217 226.55 22.8748C227.329 22.9256 228.107 22.7606 228.781 22.4014C229.456 22.0422 229.996 21.5056 230.33 20.8619C230.765 20.033 230.923 19.1058 230.784 18.1957C230.645 17.2856 230.216 16.4327 229.55 15.7432C227.77 13.839 224.521 13.0699 220.289 13.4694Z"
        fill="#292A2E"/>
    <path
        d="M257.505 5.85961C256.992 5.8587 256.49 5.72561 256.057 5.47573C255.623 5.22584 255.276 4.86933 255.056 4.44735C254.835 4.02537 254.75 3.55512 254.81 3.09088C254.87 2.62664 255.073 2.18734 255.395 1.82367C255.717 1.46 256.145 1.1868 256.631 1.0356C257.116 0.884391 257.638 0.861348 258.137 0.969127C258.636 1.07691 259.092 1.31111 259.451 1.64471C259.81 1.97832 260.059 2.39771 260.168 2.8545C260.253 3.21656 260.248 3.59142 260.154 3.95166C260.06 4.3119 259.879 4.64838 259.623 4.93648C259.368 5.22458 259.045 5.457 258.679 5.61672C258.312 5.77645 257.911 5.85944 257.505 5.85961ZM257.511 1.59644C257.106 1.59636 256.711 1.71078 256.38 1.92393C256.049 2.13708 255.799 2.43847 255.665 2.78655C255.53 3.13463 255.517 3.51226 255.627 3.8674C255.738 4.22254 255.966 4.5377 256.281 4.76944C256.597 5.00117 256.983 5.13808 257.387 5.16129C257.791 5.18449 258.194 5.09285 258.538 4.899C258.883 4.70515 259.153 4.41863 259.312 4.07894C259.47 3.73924 259.509 3.36309 259.423 3.00234C259.331 2.60295 259.09 2.24484 258.742 1.98863C258.393 1.73243 257.958 1.59388 257.511 1.59644Z"
        fill="#292A2E"/>
    <path
        d="M256.358 11.5239C255.66 11.5238 254.989 11.2798 254.483 10.8422C253.976 10.4046 253.673 9.80666 253.636 9.1715C253.598 8.53635 253.83 7.91229 254.282 7.42781C254.734 6.94332 255.373 6.63527 256.066 6.56707C256.76 6.49887 257.456 6.67571 258.011 7.06119C258.566 7.44666 258.938 8.01144 259.05 8.63926C259.162 9.26707 259.006 9.91015 258.614 10.4361C258.221 10.9621 257.622 11.3309 256.941 11.4666C256.749 11.5047 256.554 11.5239 256.358 11.5239ZM256.368 7.26038C256.227 7.26046 256.087 7.2743 255.949 7.30168C255.463 7.39904 255.036 7.66261 254.756 8.03816C254.477 8.41371 254.366 8.87267 254.446 9.32061C254.526 9.76856 254.792 10.1714 255.188 10.4463C255.584 10.7212 256.081 10.8471 256.576 10.7983C257.071 10.7495 257.527 10.5296 257.849 10.1838C258.172 9.83809 258.337 9.39278 258.31 8.93955C258.284 8.48631 258.067 8.05963 257.706 7.74728C257.345 7.43493 256.866 7.26068 256.368 7.26038Z"
        fill="#292A2E"/>
    <path
        d="M260.448 6.8736C260.688 5.68819 259.304 4.46174 257.357 4.13424C255.409 3.80674 253.636 4.50221 253.396 5.68762C253.156 6.87302 254.54 8.09948 256.487 8.42698C258.435 8.75447 260.208 8.059 260.448 6.8736Z"
        fill="white"/>
    <path
        d="M257.448 8.85526C257.103 8.85476 256.759 8.82572 256.42 8.7685C255.462 8.6237 254.572 8.22736 253.858 7.62809C253.545 7.38503 253.305 7.07405 253.159 6.72393C253.013 6.3738 252.967 5.99581 253.024 5.62492C253.116 5.25996 253.307 4.92207 253.581 4.64244C253.854 4.36281 254.2 4.15046 254.587 4.02501C255.493 3.71308 256.475 3.63284 257.427 3.79299C258.38 3.95313 259.266 4.34756 259.99 4.93359C260.302 5.17666 260.542 5.48763 260.688 5.83776C260.834 6.18789 260.881 6.56587 260.824 6.93677C260.732 7.30172 260.54 7.63962 260.267 7.91925C259.993 8.19887 259.647 8.41122 259.26 8.53667C258.686 8.75333 258.069 8.86171 257.448 8.85526ZM256.396 4.39983C255.879 4.39383 255.366 4.4832 254.888 4.66255C254.617 4.74513 254.374 4.88789 254.179 5.07791C253.984 5.26794 253.844 5.49924 253.772 5.7509C253.741 6.00944 253.781 6.27105 253.888 6.51196C253.996 6.75288 254.168 6.96546 254.389 7.13042C255.004 7.62039 255.754 7.95029 256.557 8.08554C257.361 8.22079 258.19 8.15641 258.957 7.89914C259.228 7.81659 259.472 7.67384 259.667 7.4838C259.861 7.29377 260.001 7.06245 260.073 6.81079C260.104 6.55226 260.064 6.29071 259.957 6.04983C259.849 5.80895 259.677 5.59634 259.457 5.43126C258.85 4.92726 258.096 4.59525 257.286 4.47583C256.993 4.42599 256.695 4.40055 256.396 4.39983Z"
        fill="#292A2E"/>
    <path d="M256.482 4.0542L255.717 8.24171L256.846 8.47632L257.794 4.2253L256.482 4.0542Z"
          fill="#292A2E"/>
    <path
        d="M261.072 8.55943C261.277 8.55943 261.442 8.4084 261.442 8.2221C261.442 8.03579 261.277 7.88477 261.072 7.88477C260.868 7.88477 260.702 8.03579 260.702 8.2221C260.702 8.4084 260.868 8.55943 261.072 8.55943Z"
        fill="#292A2E"/>
    <path
        d="M261.718 6.83238C261.922 6.83238 262.088 6.68135 262.088 6.49505C262.088 6.30874 261.922 6.15771 261.718 6.15771C261.513 6.15771 261.348 6.30874 261.348 6.49505C261.348 6.68135 261.513 6.83238 261.718 6.83238Z"
        fill="#292A2E"/>
    <path
        d="M262.488 69.5143V199.138C262.488 200.617 261.844 202.035 260.696 203.081C259.549 204.127 257.993 204.714 256.37 204.714H76.5938C74.9711 204.714 73.4149 204.127 72.2676 203.081C71.1202 202.035 70.4756 200.617 70.4756 199.138V94.8212C70.4757 93.3422 71.1203 91.9237 72.2677 90.8779C73.415 89.8321 74.9712 89.2445 76.5938 89.2444H184.427C186.05 89.2444 187.606 88.6569 188.753 87.611C189.901 86.5652 190.545 85.1467 190.545 83.6677V69.5143C190.545 68.0352 191.19 66.6167 192.337 65.5709C193.485 64.525 195.041 63.9375 196.663 63.9375H256.37C257.993 63.9375 259.549 64.525 260.696 65.5709C261.844 66.6167 262.488 68.0352 262.488 69.5143Z"
        fill="#7F5BEB"/>
    <path
        d="M256.37 205.061H76.594C74.871 205.059 73.2191 204.435 72.0007 203.324C70.7823 202.214 70.0968 200.708 70.0947 199.138V94.8211C70.0968 93.2505 70.7823 91.7449 72.0007 90.6344C73.2191 89.524 74.871 88.8994 76.594 88.8976H184.427C185.948 88.896 187.407 88.3444 188.482 87.3639C189.558 86.3834 190.163 85.0541 190.165 83.6676V69.5141C190.167 67.9436 190.852 66.438 192.07 65.3274C193.288 64.2169 194.94 63.5922 196.663 63.5903H256.37C258.093 63.5921 259.745 64.2167 260.963 65.3273C262.182 66.4379 262.867 67.9436 262.869 69.5141V199.138C262.867 200.708 262.182 202.214 260.963 203.324C259.745 204.435 258.093 205.059 256.37 205.061ZM76.594 89.5917C75.0729 89.5932 73.6145 90.1446 72.5388 91.1249C71.4632 92.1053 70.858 93.4345 70.8562 94.8211V199.138C70.8579 200.524 71.463 201.853 72.5387 202.834C73.6144 203.814 75.0728 204.366 76.594 204.367H256.37C257.891 204.366 259.349 203.814 260.425 202.834C261.501 201.853 262.106 200.524 262.107 199.138V69.5141C262.106 68.1276 261.501 66.7983 260.425 65.8179C259.349 64.8375 257.891 64.286 256.37 64.2844H196.663C195.142 64.2861 193.684 64.8376 192.608 65.818C191.533 66.7984 190.928 68.1277 190.926 69.5141V83.6665C190.924 85.2371 190.239 86.7429 189.021 87.8535C187.802 88.9641 186.15 89.5888 184.427 89.5907L76.594 89.5917Z"
        fill="#262626"/>
    <path
        d="M273.91 69.5143V199.138C273.91 200.617 273.266 202.035 272.118 203.081C270.971 204.127 269.415 204.714 267.792 204.714H88.0156C86.393 204.714 84.8368 204.127 83.6894 203.081C82.5421 202.035 81.8975 200.617 81.8975 199.138V94.8212C81.8976 93.3422 82.5422 91.9237 83.6895 90.8779C84.8369 89.8321 86.393 89.2445 88.0156 89.2444H195.849C197.471 89.2444 199.028 88.6569 200.175 87.611C201.322 86.5652 201.967 85.1467 201.967 83.6677V69.5143C201.967 68.0352 202.612 66.6167 203.759 65.5709C204.906 64.525 206.463 63.9375 208.085 63.9375H267.792C269.415 63.9375 270.971 64.525 272.118 65.5709C273.266 66.6167 273.91 68.0352 273.91 69.5143Z"
        fill="white"/>
    <path
        d="M267.792 205.061H88.0159C86.2929 205.059 84.641 204.435 83.4226 203.324C82.2042 202.214 81.5187 200.708 81.5166 199.138V94.8211C81.5187 93.2505 82.2042 91.7449 83.4226 90.6344C84.641 89.524 86.2929 88.8994 88.0159 88.8976H195.849C197.37 88.896 198.829 88.3444 199.904 87.3639C200.98 86.3834 201.585 85.0541 201.587 83.6676V69.5141C201.588 67.9436 202.274 66.438 203.492 65.3274C204.71 64.2169 206.362 63.5922 208.085 63.5903H267.792C269.515 63.5921 271.167 64.2167 272.385 65.3273C273.604 66.4379 274.289 67.9436 274.291 69.5141V199.138C274.289 200.708 273.603 202.214 272.385 203.324C271.167 204.435 269.515 205.059 267.792 205.061ZM88.0159 89.5917C86.4948 89.5932 85.0364 90.1446 83.9607 91.1249C82.885 92.1053 82.2799 93.4345 82.2781 94.8211V199.138C82.2798 200.524 82.8849 201.853 83.9606 202.834C85.0363 203.814 86.4947 204.366 88.0159 204.367H267.792C269.313 204.366 270.771 203.814 271.847 202.834C272.923 201.853 273.528 200.524 273.529 199.138V69.5141C273.528 68.1276 272.923 66.7983 271.847 65.8179C270.771 64.8375 269.313 64.286 267.792 64.2844H208.085C206.564 64.2861 205.106 64.8376 204.03 65.818C202.955 66.7984 202.35 68.1277 202.348 69.5141V83.6665C202.346 85.2371 201.661 86.7429 200.442 87.8535C199.224 88.9641 197.572 89.5888 195.849 89.5907L88.0159 89.5917Z"
        fill="#262626"/>
    <path
        d="M163.399 134.907C165.735 134.907 167.63 133.18 167.63 131.05C167.63 128.92 165.735 127.194 163.399 127.194C161.062 127.194 159.168 128.92 159.168 131.05C159.168 133.18 161.062 134.907 163.399 134.907Z"
        fill="#292A2E"/>
    <path
        d="M192.411 134.907C194.747 134.907 196.641 133.18 196.641 131.05C196.641 128.92 194.747 127.194 192.411 127.194C190.074 127.194 188.18 128.92 188.18 131.05C188.18 133.18 190.074 134.907 192.411 134.907Z"
        fill="#292A2E"/>
    <path d="M183.577 141.111H172.232V141.805H183.577V141.111Z" fill="#262626"/>
    <g opacity="0.1">
        <path
            d="M159.034 142.082C161.119 142.082 162.808 141.271 162.808 140.271C162.808 139.271 161.119 138.46 159.034 138.46C156.95 138.46 155.26 139.271 155.26 140.271C155.26 141.271 156.95 142.082 159.034 142.082Z"
            fill="#7F5BEB"/>
        <path
            d="M196.775 142.082C198.86 142.082 200.55 141.271 200.55 140.271C200.55 139.271 198.86 138.46 196.775 138.46C194.691 138.46 193.001 139.271 193.001 140.271C193.001 141.271 194.691 142.082 196.775 142.082Z"
            fill="#7F5BEB"/>
    </g>
    <path
        d="M0.86 281.02C0.86 279.66 1.16667 278.44 1.78 277.36C2.39333 276.267 3.22667 275.413 4.28 274.8C5.34667 274.187 6.52667 273.88 7.82 273.88C9.34 273.88 10.6667 274.247 11.8 274.98C12.9333 275.713 13.76 276.753 14.28 278.1H12.1C11.7133 277.26 11.1533 276.613 10.42 276.16C9.7 275.707 8.83333 275.48 7.82 275.48C6.84667 275.48 5.97333 275.707 5.2 276.16C4.42667 276.613 3.82 277.26 3.38 278.1C2.94 278.927 2.72 279.9 2.72 281.02C2.72 282.127 2.94 283.1 3.38 283.94C3.82 284.767 4.42667 285.407 5.2 285.86C5.97333 286.313 6.84667 286.54 7.82 286.54C8.83333 286.54 9.7 286.32 10.42 285.88C11.1533 285.427 11.7133 284.78 12.1 283.94H14.28C13.76 285.273 12.9333 286.307 11.8 287.04C10.6667 287.76 9.34 288.12 7.82 288.12C6.52667 288.12 5.34667 287.82 4.28 287.22C3.22667 286.607 2.39333 285.76 1.78 284.68C1.16667 283.6 0.86 282.38 0.86 281.02ZM19.6092 278.82C19.9292 278.193 20.3826 277.707 20.9692 277.36C21.5692 277.013 22.2959 276.84 23.1492 276.84V278.72H22.6692C20.6292 278.72 19.6092 279.827 19.6092 282.04V288H17.7892V277.04H19.6092V278.82ZM36.0502 282.1C36.0502 282.447 36.0302 282.813 35.9902 283.2H27.2302C27.2968 284.28 27.6635 285.127 28.3302 285.74C29.0102 286.34 29.8302 286.64 30.7902 286.64C31.5768 286.64 32.2302 286.46 32.7502 286.1C33.2835 285.727 33.6568 285.233 33.8702 284.62H35.8302C35.5368 285.673 34.9502 286.533 34.0702 287.2C33.1902 287.853 32.0968 288.18 30.7902 288.18C29.7502 288.18 28.8168 287.947 27.9902 287.48C27.1768 287.013 26.5368 286.353 26.0702 285.5C25.6035 284.633 25.3702 283.633 25.3702 282.5C25.3702 281.367 25.5968 280.373 26.0502 279.52C26.5035 278.667 27.1368 278.013 27.9502 277.56C28.7768 277.093 29.7235 276.86 30.7902 276.86C31.8302 276.86 32.7502 277.087 33.5502 277.54C34.3502 277.993 34.9635 278.62 35.3902 279.42C35.8302 280.207 36.0502 281.1 36.0502 282.1ZM34.1702 281.72C34.1702 281.027 34.0168 280.433 33.7102 279.94C33.4035 279.433 32.9835 279.053 32.4502 278.8C31.9302 278.533 31.3502 278.4 30.7102 278.4C29.7902 278.4 29.0035 278.693 28.3502 279.28C27.7102 279.867 27.3435 280.68 27.2502 281.72H34.1702ZM38.5725 282.48C38.5725 281.36 38.7992 280.38 39.2525 279.54C39.7058 278.687 40.3258 278.027 41.1125 277.56C41.9125 277.093 42.7992 276.86 43.7725 276.86C44.7325 276.86 45.5658 277.067 46.2725 277.48C46.9792 277.893 47.5058 278.413 47.8525 279.04V277.04H49.6925V288H47.8525V285.96C47.4925 286.6 46.9525 287.133 46.2325 287.56C45.5258 287.973 44.6992 288.18 43.7525 288.18C42.7792 288.18 41.8992 287.94 41.1125 287.46C40.3258 286.98 39.7058 286.307 39.2525 285.44C38.7992 284.573 38.5725 283.587 38.5725 282.48ZM47.8525 282.5C47.8525 281.673 47.6858 280.953 47.3525 280.34C47.0192 279.727 46.5658 279.26 45.9925 278.94C45.4325 278.607 44.8125 278.44 44.1325 278.44C43.4525 278.44 42.8325 278.6 42.2725 278.92C41.7125 279.24 41.2658 279.707 40.9325 280.32C40.5992 280.933 40.4325 281.653 40.4325 282.48C40.4325 283.32 40.5992 284.053 40.9325 284.68C41.2658 285.293 41.7125 285.767 42.2725 286.1C42.8325 286.42 43.4525 286.58 44.1325 286.58C44.8125 286.58 45.4325 286.42 45.9925 286.1C46.5658 285.767 47.0192 285.293 47.3525 284.68C47.6858 284.053 47.8525 283.327 47.8525 282.5ZM55.7881 278.54V285C55.7881 285.533 55.9015 285.913 56.1281 286.14C56.3548 286.353 56.7481 286.46 57.3081 286.46H58.6481V288H57.0081C55.9948 288 55.2348 287.767 54.7281 287.3C54.2215 286.833 53.9681 286.067 53.9681 285V278.54H52.5481V277.04H53.9681V274.28H55.7881V277.04H58.6481V278.54H55.7881ZM71.6533 282.1C71.6533 282.447 71.6333 282.813 71.5933 283.2H62.8333C62.8999 284.28 63.2666 285.127 63.9333 285.74C64.6133 286.34 65.4333 286.64 66.3933 286.64C67.1799 286.64 67.8333 286.46 68.3533 286.1C68.8866 285.727 69.2599 285.233 69.4733 284.62H71.4333C71.1399 285.673 70.5533 286.533 69.6733 287.2C68.7933 287.853 67.6999 288.18 66.3933 288.18C65.3533 288.18 64.4199 287.947 63.5933 287.48C62.7799 287.013 62.1399 286.353 61.6733 285.5C61.2066 284.633 60.9733 283.633 60.9733 282.5C60.9733 281.367 61.1999 280.373 61.6533 279.52C62.1066 278.667 62.7399 278.013 63.5533 277.56C64.3799 277.093 65.3266 276.86 66.3933 276.86C67.4333 276.86 68.3533 277.087 69.1533 277.54C69.9533 277.993 70.5666 278.62 70.9933 279.42C71.4333 280.207 71.6533 281.1 71.6533 282.1ZM69.7733 281.72C69.7733 281.027 69.6199 280.433 69.3133 279.94C69.0066 279.433 68.5866 279.053 68.0533 278.8C67.5333 278.533 66.9533 278.4 66.3133 278.4C65.3933 278.4 64.6066 278.693 63.9533 279.28C63.3133 279.867 62.9466 280.68 62.8533 281.72H69.7733ZM80.3077 282.48C80.3077 281.36 80.5343 280.38 80.9877 279.54C81.441 278.687 82.061 278.027 82.8477 277.56C83.6477 277.093 84.5343 276.86 85.5077 276.86C86.4677 276.86 87.301 277.067 88.0077 277.48C88.7143 277.893 89.241 278.413 89.5877 279.04V277.04H91.4277V288H89.5877V285.96C89.2277 286.6 88.6877 287.133 87.9677 287.56C87.261 287.973 86.4343 288.18 85.4877 288.18C84.5143 288.18 83.6343 287.94 82.8477 287.46C82.061 286.98 81.441 286.307 80.9877 285.44C80.5343 284.573 80.3077 283.587 80.3077 282.48ZM89.5877 282.5C89.5877 281.673 89.421 280.953 89.0877 280.34C88.7543 279.727 88.301 279.26 87.7277 278.94C87.1677 278.607 86.5477 278.44 85.8677 278.44C85.1877 278.44 84.5677 278.6 84.0077 278.92C83.4477 279.24 83.001 279.707 82.6677 280.32C82.3343 280.933 82.1677 281.653 82.1677 282.48C82.1677 283.32 82.3343 284.053 82.6677 284.68C83.001 285.293 83.4477 285.767 84.0077 286.1C84.5677 286.42 85.1877 286.58 85.8677 286.58C86.5477 286.58 87.1677 286.42 87.7277 286.1C88.301 285.767 88.7543 285.293 89.0877 284.68C89.421 284.053 89.5877 283.327 89.5877 282.5ZM102.415 275.26C102.069 275.26 101.775 275.14 101.535 274.9C101.309 274.66 101.195 274.367 101.195 274.02C101.195 273.673 101.309 273.38 101.535 273.14C101.775 272.9 102.069 272.78 102.415 272.78C102.762 272.78 103.049 272.9 103.275 273.14C103.515 273.38 103.635 273.673 103.635 274.02C103.635 274.367 103.515 274.66 103.275 274.9C103.049 275.14 102.762 275.26 102.415 275.26ZM103.315 290.38C103.315 291.353 103.069 292.067 102.575 292.52C102.082 292.973 101.362 293.2 100.415 293.2H99.3553V291.66H100.115C100.622 291.66 100.975 291.56 101.175 291.36C101.389 291.16 101.495 290.82 101.495 290.34V277.04H103.315V290.38ZM111.976 288.18C110.95 288.18 110.016 287.947 109.176 287.48C108.35 287.013 107.696 286.353 107.216 285.5C106.75 284.633 106.516 283.633 106.516 282.5C106.516 281.38 106.756 280.393 107.236 279.54C107.73 278.673 108.396 278.013 109.236 277.56C110.076 277.093 111.016 276.86 112.056 276.86C113.096 276.86 114.036 277.093 114.876 277.56C115.716 278.013 116.376 278.667 116.856 279.52C117.35 280.373 117.596 281.367 117.596 282.5C117.596 283.633 117.343 284.633 116.836 285.5C116.343 286.353 115.67 287.013 114.816 287.48C113.963 287.947 113.016 288.18 111.976 288.18ZM111.976 286.58C112.63 286.58 113.243 286.427 113.816 286.12C114.39 285.813 114.85 285.353 115.196 284.74C115.556 284.127 115.736 283.38 115.736 282.5C115.736 281.62 115.563 280.873 115.216 280.26C114.87 279.647 114.416 279.193 113.856 278.9C113.296 278.593 112.69 278.44 112.036 278.44C111.37 278.44 110.756 278.593 110.196 278.9C109.65 279.193 109.21 279.647 108.876 280.26C108.543 280.873 108.376 281.62 108.376 282.5C108.376 283.393 108.536 284.147 108.856 284.76C109.19 285.373 109.63 285.833 110.176 286.14C110.723 286.433 111.323 286.58 111.976 286.58ZM122.609 279.08C122.983 278.427 123.529 277.893 124.249 277.48C124.969 277.067 125.789 276.86 126.709 276.86C127.696 276.86 128.583 277.093 129.369 277.56C130.156 278.027 130.776 278.687 131.229 279.54C131.683 280.38 131.909 281.36 131.909 282.48C131.909 283.587 131.683 284.573 131.229 285.44C130.776 286.307 130.149 286.98 129.349 287.46C128.563 287.94 127.683 288.18 126.709 288.18C125.763 288.18 124.929 287.973 124.209 287.56C123.503 287.147 122.969 286.62 122.609 285.98V288H120.789V273.2H122.609V279.08ZM130.049 282.48C130.049 281.653 129.883 280.933 129.549 280.32C129.216 279.707 128.763 279.24 128.189 278.92C127.629 278.6 127.009 278.44 126.329 278.44C125.663 278.44 125.043 278.607 124.469 278.94C123.909 279.26 123.456 279.733 123.109 280.36C122.776 280.973 122.609 281.687 122.609 282.5C122.609 283.327 122.776 284.053 123.109 284.68C123.456 285.293 123.909 285.767 124.469 286.1C125.043 286.42 125.663 286.58 126.329 286.58C127.009 286.58 127.629 286.42 128.189 286.1C128.763 285.767 129.216 285.293 129.549 284.68C129.883 284.053 130.049 283.32 130.049 282.48ZM143.057 279.08C143.43 278.427 143.977 277.893 144.697 277.48C145.417 277.067 146.237 276.86 147.157 276.86C148.144 276.86 149.03 277.093 149.817 277.56C150.604 278.027 151.224 278.687 151.677 279.54C152.13 280.38 152.357 281.36 152.357 282.48C152.357 283.587 152.13 284.573 151.677 285.44C151.224 286.307 150.597 286.98 149.797 287.46C149.01 287.94 148.13 288.18 147.157 288.18C146.21 288.18 145.377 287.973 144.657 287.56C143.95 287.147 143.417 286.62 143.057 285.98V288H141.237V273.2H143.057V279.08ZM150.497 282.48C150.497 281.653 150.33 280.933 149.997 280.32C149.664 279.707 149.21 279.24 148.637 278.92C148.077 278.6 147.457 278.44 146.777 278.44C146.11 278.44 145.49 278.607 144.917 278.94C144.357 279.26 143.904 279.733 143.557 280.36C143.224 280.973 143.057 281.687 143.057 282.5C143.057 283.327 143.224 284.053 143.557 284.68C143.904 285.293 144.357 285.767 144.917 286.1C145.49 286.42 146.11 286.58 146.777 286.58C147.457 286.58 148.077 286.42 148.637 286.1C149.21 285.767 149.664 285.293 149.997 284.68C150.33 284.053 150.497 283.32 150.497 282.48ZM160.332 288.18C159.306 288.18 158.372 287.947 157.532 287.48C156.706 287.013 156.052 286.353 155.572 285.5C155.106 284.633 154.872 283.633 154.872 282.5C154.872 281.38 155.112 280.393 155.592 279.54C156.086 278.673 156.752 278.013 157.592 277.56C158.432 277.093 159.372 276.86 160.412 276.86C161.452 276.86 162.392 277.093 163.232 277.56C164.072 278.013 164.732 278.667 165.212 279.52C165.706 280.373 165.952 281.367 165.952 282.5C165.952 283.633 165.699 284.633 165.192 285.5C164.699 286.353 164.026 287.013 163.172 287.48C162.319 287.947 161.372 288.18 160.332 288.18ZM160.332 286.58C160.986 286.58 161.599 286.427 162.172 286.12C162.746 285.813 163.206 285.353 163.552 284.74C163.912 284.127 164.092 283.38 164.092 282.5C164.092 281.62 163.919 280.873 163.572 280.26C163.226 279.647 162.772 279.193 162.212 278.9C161.652 278.593 161.046 278.44 160.392 278.44C159.726 278.44 159.112 278.593 158.552 278.9C158.006 279.193 157.566 279.647 157.232 280.26C156.899 280.873 156.732 281.62 156.732 282.5C156.732 283.393 156.892 284.147 157.212 284.76C157.546 285.373 157.986 285.833 158.532 286.14C159.079 286.433 159.679 286.58 160.332 286.58ZM168.465 282.48C168.465 281.36 168.692 280.38 169.145 279.54C169.599 278.687 170.219 278.027 171.005 277.56C171.805 277.093 172.692 276.86 173.665 276.86C174.625 276.86 175.459 277.067 176.165 277.48C176.872 277.893 177.399 278.413 177.745 279.04V277.04H179.585V288H177.745V285.96C177.385 286.6 176.845 287.133 176.125 287.56C175.419 287.973 174.592 288.18 173.645 288.18C172.672 288.18 171.792 287.94 171.005 287.46C170.219 286.98 169.599 286.307 169.145 285.44C168.692 284.573 168.465 283.587 168.465 282.48ZM177.745 282.5C177.745 281.673 177.579 280.953 177.245 280.34C176.912 279.727 176.459 279.26 175.885 278.94C175.325 278.607 174.705 278.44 174.025 278.44C173.345 278.44 172.725 278.6 172.165 278.92C171.605 279.24 171.159 279.707 170.825 280.32C170.492 280.933 170.325 281.653 170.325 282.48C170.325 283.32 170.492 284.053 170.825 284.68C171.159 285.293 171.605 285.767 172.165 286.1C172.725 286.42 173.345 286.58 174.025 286.58C174.705 286.58 175.325 286.42 175.885 286.1C176.459 285.767 176.912 285.293 177.245 284.68C177.579 284.053 177.745 283.327 177.745 282.5ZM185.281 278.82C185.601 278.193 186.054 277.707 186.641 277.36C187.241 277.013 187.968 276.84 188.821 276.84V278.72H188.341C186.301 278.72 185.281 279.827 185.281 282.04V288H183.461V277.04H185.281V278.82ZM191.042 282.48C191.042 281.36 191.269 280.38 191.722 279.54C192.175 278.687 192.795 278.027 193.582 277.56C194.382 277.093 195.275 276.86 196.262 276.86C197.115 276.86 197.909 277.06 198.642 277.46C199.375 277.847 199.935 278.36 200.322 279V273.2H202.162V288H200.322V285.94C199.962 286.593 199.429 287.133 198.722 287.56C198.015 287.973 197.189 288.18 196.242 288.18C195.269 288.18 194.382 287.94 193.582 287.46C192.795 286.98 192.175 286.307 191.722 285.44C191.269 284.573 191.042 283.587 191.042 282.48ZM200.322 282.5C200.322 281.673 200.155 280.953 199.822 280.34C199.489 279.727 199.035 279.26 198.462 278.94C197.902 278.607 197.282 278.44 196.602 278.44C195.922 278.44 195.302 278.6 194.742 278.92C194.182 279.24 193.735 279.707 193.402 280.32C193.069 280.933 192.902 281.653 192.902 282.48C192.902 283.32 193.069 284.053 193.402 284.68C193.735 285.293 194.182 285.767 194.742 286.1C195.302 286.42 195.922 286.58 196.602 286.58C197.282 286.58 197.902 286.42 198.462 286.1C199.035 285.767 199.489 285.293 199.822 284.68C200.155 284.053 200.322 283.327 200.322 282.5ZM221.89 277.04V288H220.07V286.38C219.723 286.94 219.236 287.38 218.61 287.7C217.996 288.007 217.316 288.16 216.57 288.16C215.716 288.16 214.95 287.987 214.27 287.64C213.59 287.28 213.05 286.747 212.65 286.04C212.263 285.333 212.07 284.473 212.07 283.46V277.04H213.87V283.22C213.87 284.3 214.143 285.133 214.69 285.72C215.236 286.293 215.983 286.58 216.93 286.58C217.903 286.58 218.67 286.28 219.23 285.68C219.79 285.08 220.07 284.207 220.07 283.06V277.04H221.89ZM229.643 288.18C228.803 288.18 228.049 288.04 227.383 287.76C226.716 287.467 226.189 287.067 225.803 286.56C225.416 286.04 225.203 285.447 225.163 284.78H227.043C227.096 285.327 227.349 285.773 227.803 286.12C228.269 286.467 228.876 286.64 229.623 286.64C230.316 286.64 230.863 286.487 231.263 286.18C231.663 285.873 231.863 285.487 231.863 285.02C231.863 284.54 231.649 284.187 231.223 283.96C230.796 283.72 230.136 283.487 229.243 283.26C228.429 283.047 227.763 282.833 227.243 282.62C226.736 282.393 226.296 282.067 225.923 281.64C225.563 281.2 225.383 280.627 225.383 279.92C225.383 279.36 225.549 278.847 225.883 278.38C226.216 277.913 226.689 277.547 227.303 277.28C227.916 277 228.616 276.86 229.403 276.86C230.616 276.86 231.596 277.167 232.343 277.78C233.089 278.393 233.489 279.233 233.543 280.3H231.723C231.683 279.727 231.449 279.267 231.023 278.92C230.609 278.573 230.049 278.4 229.343 278.4C228.689 278.4 228.169 278.54 227.783 278.82C227.396 279.1 227.203 279.467 227.203 279.92C227.203 280.28 227.316 280.58 227.543 280.82C227.783 281.047 228.076 281.233 228.423 281.38C228.783 281.513 229.276 281.667 229.903 281.84C230.689 282.053 231.329 282.267 231.823 282.48C232.316 282.68 232.736 282.987 233.083 283.4C233.443 283.813 233.629 284.353 233.643 285.02C233.643 285.62 233.476 286.16 233.143 286.64C232.809 287.12 232.336 287.5 231.723 287.78C231.123 288.047 230.429 288.18 229.643 288.18ZM237.952 275.26C237.605 275.26 237.312 275.14 237.072 274.9C236.832 274.66 236.712 274.367 236.712 274.02C236.712 273.673 236.832 273.38 237.072 273.14C237.312 272.9 237.605 272.78 237.952 272.78C238.285 272.78 238.565 272.9 238.792 273.14C239.032 273.38 239.152 273.673 239.152 274.02C239.152 274.367 239.032 274.66 238.792 274.9C238.565 275.14 238.285 275.26 237.952 275.26ZM238.832 277.04V288H237.012V277.04H238.832ZM248.074 276.84C249.407 276.84 250.487 277.247 251.314 278.06C252.14 278.86 252.554 280.02 252.554 281.54V288H250.754V281.8C250.754 280.707 250.48 279.873 249.934 279.3C249.387 278.713 248.64 278.42 247.694 278.42C246.734 278.42 245.967 278.72 245.394 279.32C244.834 279.92 244.554 280.793 244.554 281.94V288H242.734V277.04H244.554V278.6C244.914 278.04 245.4 277.607 246.014 277.3C246.64 276.993 247.327 276.84 248.074 276.84ZM260.847 276.86C261.793 276.86 262.62 277.067 263.327 277.48C264.047 277.893 264.58 278.413 264.927 279.04V277.04H266.767V288.24C266.767 289.24 266.553 290.127 266.127 290.9C265.7 291.687 265.087 292.3 264.287 292.74C263.5 293.18 262.58 293.4 261.527 293.4C260.087 293.4 258.887 293.06 257.927 292.38C256.967 291.7 256.4 290.773 256.227 289.6H258.027C258.227 290.267 258.64 290.8 259.267 291.2C259.893 291.613 260.647 291.82 261.527 291.82C262.527 291.82 263.34 291.507 263.967 290.88C264.607 290.253 264.927 289.373 264.927 288.24V285.94C264.567 286.58 264.033 287.113 263.327 287.54C262.62 287.967 261.793 288.18 260.847 288.18C259.873 288.18 258.987 287.94 258.187 287.46C257.4 286.98 256.78 286.307 256.327 285.44C255.873 284.573 255.647 283.587 255.647 282.48C255.647 281.36 255.873 280.38 256.327 279.54C256.78 278.687 257.4 278.027 258.187 277.56C258.987 277.093 259.873 276.86 260.847 276.86ZM264.927 282.5C264.927 281.673 264.76 280.953 264.427 280.34C264.093 279.727 263.64 279.26 263.067 278.94C262.507 278.607 261.887 278.44 261.207 278.44C260.527 278.44 259.907 278.6 259.347 278.92C258.787 279.24 258.34 279.707 258.007 280.32C257.673 280.933 257.507 281.653 257.507 282.48C257.507 283.32 257.673 284.053 258.007 284.68C258.34 285.293 258.787 285.767 259.347 286.1C259.907 286.42 260.527 286.58 261.207 286.58C261.887 286.58 262.507 286.42 263.067 286.1C263.64 285.767 264.093 285.293 264.427 284.68C264.76 284.053 264.927 283.327 264.927 282.5ZM288.294 274.06L283.034 288H280.934L275.674 274.06H277.614L281.994 286.08L286.374 274.06H288.294ZM301.09 282.1C301.09 282.447 301.07 282.813 301.03 283.2H292.27C292.337 284.28 292.703 285.127 293.37 285.74C294.05 286.34 294.87 286.64 295.83 286.64C296.617 286.64 297.27 286.46 297.79 286.1C298.323 285.727 298.697 285.233 298.91 284.62H300.87C300.577 285.673 299.99 286.533 299.11 287.2C298.23 287.853 297.137 288.18 295.83 288.18C294.79 288.18 293.857 287.947 293.03 287.48C292.217 287.013 291.577 286.353 291.11 285.5C290.643 284.633 290.41 283.633 290.41 282.5C290.41 281.367 290.637 280.373 291.09 279.52C291.543 278.667 292.177 278.013 292.99 277.56C293.817 277.093 294.763 276.86 295.83 276.86C296.87 276.86 297.79 277.087 298.59 277.54C299.39 277.993 300.003 278.62 300.43 279.42C300.87 280.207 301.09 281.1 301.09 282.1ZM299.21 281.72C299.21 281.027 299.057 280.433 298.75 279.94C298.443 279.433 298.023 279.053 297.49 278.8C296.97 278.533 296.39 278.4 295.75 278.4C294.83 278.4 294.043 278.693 293.39 279.28C292.75 279.867 292.383 280.68 292.29 281.72H299.21ZM309.632 276.84C310.966 276.84 312.046 277.247 312.872 278.06C313.699 278.86 314.112 280.02 314.112 281.54V288H312.312V281.8C312.312 280.707 312.039 279.873 311.492 279.3C310.946 278.713 310.199 278.42 309.252 278.42C308.292 278.42 307.526 278.72 306.952 279.32C306.392 279.92 306.112 280.793 306.112 281.94V288H304.292V277.04H306.112V278.6C306.472 278.04 306.959 277.607 307.572 277.3C308.199 276.993 308.886 276.84 309.632 276.84ZM317.205 282.48C317.205 281.36 317.432 280.38 317.885 279.54C318.339 278.687 318.959 278.027 319.745 277.56C320.545 277.093 321.432 276.86 322.405 276.86C323.365 276.86 324.199 277.067 324.905 277.48C325.612 277.893 326.139 278.413 326.485 279.04V277.04H328.325V288H326.485V285.96C326.125 286.6 325.585 287.133 324.865 287.56C324.159 287.973 323.332 288.18 322.385 288.18C321.412 288.18 320.532 287.94 319.745 287.46C318.959 286.98 318.339 286.307 317.885 285.44C317.432 284.573 317.205 283.587 317.205 282.48ZM326.485 282.5C326.485 281.673 326.319 280.953 325.985 280.34C325.652 279.727 325.199 279.26 324.625 278.94C324.065 278.607 323.445 278.44 322.765 278.44C322.085 278.44 321.465 278.6 320.905 278.92C320.345 279.24 319.899 279.707 319.565 280.32C319.232 280.933 319.065 281.653 319.065 282.48C319.065 283.32 319.232 284.053 319.565 284.68C319.899 285.293 320.345 285.767 320.905 286.1C321.465 286.42 322.085 286.58 322.765 286.58C323.445 286.58 324.065 286.42 324.625 286.1C325.199 285.767 325.652 285.293 325.985 284.68C326.319 284.053 326.485 283.327 326.485 282.5ZM334.421 278.54V285C334.421 285.533 334.534 285.913 334.761 286.14C334.988 286.353 335.381 286.46 335.941 286.46H337.281V288H335.641C334.628 288 333.868 287.767 333.361 287.3C332.854 286.833 332.601 286.067 332.601 285V278.54H331.181V277.04H332.601V274.28H334.421V277.04H337.281V278.54H334.421ZM345.066 288.18C344.039 288.18 343.106 287.947 342.266 287.48C341.439 287.013 340.786 286.353 340.306 285.5C339.839 284.633 339.606 283.633 339.606 282.5C339.606 281.38 339.846 280.393 340.326 279.54C340.819 278.673 341.486 278.013 342.326 277.56C343.166 277.093 344.106 276.86 345.146 276.86C346.186 276.86 347.126 277.093 347.966 277.56C348.806 278.013 349.466 278.667 349.946 279.52C350.439 280.373 350.686 281.367 350.686 282.5C350.686 283.633 350.433 284.633 349.926 285.5C349.433 286.353 348.759 287.013 347.906 287.48C347.053 287.947 346.106 288.18 345.066 288.18ZM345.066 286.58C345.719 286.58 346.333 286.427 346.906 286.12C347.479 285.813 347.939 285.353 348.286 284.74C348.646 284.127 348.826 283.38 348.826 282.5C348.826 281.62 348.653 280.873 348.306 280.26C347.959 279.647 347.506 279.193 346.946 278.9C346.386 278.593 345.779 278.44 345.126 278.44C344.459 278.44 343.846 278.593 343.286 278.9C342.739 279.193 342.299 279.647 341.966 280.26C341.633 280.873 341.466 281.62 341.466 282.5C341.466 283.393 341.626 284.147 341.946 284.76C342.279 285.373 342.719 285.833 343.266 286.14C343.813 286.433 344.413 286.58 345.066 286.58Z"
        fill="#757575"/>
</svg>
