<svg width="368" height="387" viewBox="0 0 368 387" fill="none" xmlns="http://www.w3.org/2000/svg">
    <path opacity="0.1" d="M243 342.998C312.036 342.998 368 287.034 368 217.999C368 148.964 312.036 93 243 93C173.964 93 118 148.964 118 217.999C118 287.034 173.964 342.998 243 342.998Z" fill="#7F5BEB"/>
    <path d="M188.919 180.505C189.371 179.998 189.918 179.585 190.53 179.29C191.141 178.995 191.805 178.823 192.483 178.784C193.16 178.746 193.839 178.841 194.48 179.064C195.121 179.288 195.712 179.636 196.219 180.088L212.719 194.804L205.836 202.521L189.336 187.805C188.829 187.353 188.416 186.805 188.121 186.194C187.826 185.582 187.654 184.919 187.616 184.241C187.577 183.563 187.672 182.884 187.896 182.243C188.119 181.602 188.467 181.011 188.919 180.505Z" fill="white"/>
    <path d="M205.876 203.241L188.996 188.185C188.44 187.688 187.986 187.087 187.662 186.415C187.337 185.743 187.149 185.014 187.106 184.27C187.063 183.525 187.168 182.779 187.414 182.074C187.659 181.37 188.041 180.721 188.538 180.164C189.034 179.608 189.636 179.154 190.308 178.83C190.979 178.505 191.709 178.316 192.453 178.274C193.198 178.231 193.944 178.336 194.648 178.582C195.353 178.827 196.002 179.209 196.559 179.706L213.44 194.762L205.876 203.241ZM192.782 179.286C192.692 179.286 192.601 179.288 192.51 179.293C191.59 179.346 190.706 179.67 189.971 180.225C189.235 180.78 188.68 181.541 188.377 182.411C188.074 183.282 188.035 184.222 188.266 185.114C188.497 186.007 188.988 186.81 189.676 187.423L205.795 201.8L211.998 194.845L195.879 180.469C195.029 179.706 193.926 179.284 192.784 179.286H192.782Z" fill="#292A2E"/>
    <path d="M280.162 202.52L273.279 194.803L289.779 180.087C290.802 179.174 292.146 178.706 293.515 178.784C294.884 178.862 296.166 179.481 297.079 180.504C297.992 181.527 298.46 182.871 298.382 184.24C298.304 185.609 297.685 186.891 296.662 187.804L280.162 202.52Z" fill="white"/>
    <path d="M280.123 203.241L272.561 194.762L289.442 179.706C290.566 178.703 292.043 178.188 293.547 178.274C295.051 178.36 296.46 179.04 297.462 180.164C298.465 181.289 298.98 182.765 298.894 184.27C298.808 185.774 298.128 187.182 297.004 188.185L280.123 203.241ZM274.002 194.844L280.206 201.799L296.324 187.423C296.781 187.016 297.153 186.523 297.419 185.972C297.685 185.421 297.84 184.823 297.875 184.212C297.91 183.601 297.824 182.989 297.622 182.411C297.421 181.834 297.107 181.301 296.7 180.845C296.293 180.388 295.8 180.016 295.249 179.75C294.697 179.484 294.099 179.329 293.488 179.294C292.878 179.259 292.266 179.345 291.688 179.547C291.11 179.748 290.578 180.062 290.121 180.469L274.002 194.844Z" fill="#292A2E"/>
    <path d="M287.035 212.092C290.715 228.391 295.754 238.876 293.244 244.899C291.926 248.064 289.218 250.718 284.737 250.718C277.752 250.718 277.752 242.481 270.767 242.481C263.781 242.481 263.782 250.718 256.798 250.718C249.813 250.718 249.814 242.481 242.83 242.481C235.846 242.481 235.845 250.718 228.861 250.718C221.877 250.718 221.877 242.481 214.893 242.481C207.909 242.481 207.91 250.718 200.927 250.718C196.78 250.718 194.436 248.277 192.95 245.454C189.378 238.675 197.703 223.757 200.927 210.601C204.488 196.065 204.188 177.958 204.666 167.038C205.588 145.978 221.753 128.87 242.834 128.87C263.916 128.87 279.467 146.014 281.003 167.038C281.831 178.372 283.665 197.173 287.035 212.092Z" fill="white"/>
    <path d="M284.738 251.234C281.006 251.234 279.153 249.047 277.36 246.931C275.643 244.906 274.021 242.994 270.767 242.994C267.513 242.994 265.894 244.906 264.175 246.931C262.382 249.045 260.529 251.234 256.798 251.234C253.067 251.234 251.214 249.047 249.421 246.931C247.705 244.906 246.083 242.994 242.83 242.994C239.577 242.994 237.956 244.906 236.239 246.931C234.446 249.045 232.592 251.234 228.861 251.234C225.13 251.234 223.276 249.047 221.487 246.934C219.77 244.909 218.149 242.997 214.895 242.997C211.642 242.997 210.022 244.909 208.305 246.934C206.512 249.048 204.659 251.236 200.929 251.236C197.218 251.236 194.46 249.424 192.496 245.697C190.006 240.97 192.997 232.613 196.164 223.766C197.737 219.372 199.363 214.828 200.429 210.482C203.277 198.857 203.638 185.196 203.927 174.219C203.995 171.623 204.06 169.17 204.156 167.019C204.612 156.594 208.757 146.892 215.828 139.699C219.342 136.098 223.544 133.238 228.183 131.29C232.823 129.342 237.806 128.345 242.838 128.359C247.838 128.347 252.788 129.347 257.391 131.298C261.994 133.25 266.154 136.113 269.621 139.715C276.529 146.826 280.754 156.519 281.52 167.004C282.259 177.114 284.022 196.4 287.541 211.983C288.734 217.268 290.07 221.936 291.248 226.055C293.708 234.656 295.487 240.87 293.723 245.1C292.765 247.39 290.329 251.234 284.738 251.234ZM270.767 241.966C274.498 241.966 276.352 244.152 278.145 246.268C279.862 248.293 281.484 250.205 284.738 250.205C289.731 250.205 291.913 246.758 292.77 244.702C294.394 240.804 292.655 234.736 290.254 226.336C289.074 222.204 287.732 217.521 286.533 212.208C282.999 196.56 281.23 177.216 280.49 167.077C278.92 145.59 262.732 129.386 242.834 129.386C222.645 129.386 206.105 145.935 205.179 167.062C205.085 169.204 205.02 171.652 204.95 174.244C204.675 184.688 204.298 198.992 201.423 210.726C200.346 215.123 198.71 219.693 197.128 224.112C194.04 232.739 191.122 240.89 193.402 245.216C195.171 248.573 197.631 250.204 200.923 250.204C204.176 250.204 205.797 248.292 207.514 246.267C209.306 244.153 211.159 241.965 214.889 241.965C218.62 241.965 220.474 244.151 222.266 246.267C223.983 248.292 225.604 250.204 228.857 250.204C232.111 250.204 233.733 248.292 235.449 246.267C237.242 244.153 239.096 241.965 242.826 241.965C246.557 241.965 248.411 244.151 250.203 246.267C251.92 248.292 253.54 250.204 256.794 250.204C260.048 250.204 261.67 248.292 263.386 246.267C265.183 244.154 267.036 241.966 270.767 241.966Z" fill="#292A2E"/>
    <path d="M228.492 169.501C230.828 169.501 232.722 167.606 232.722 165.27C232.722 162.933 230.828 161.039 228.492 161.039C226.155 161.039 224.261 162.933 224.261 165.27C224.261 167.606 226.155 169.501 228.492 169.501Z" fill="#292A2E"/>
    <path d="M257.503 169.501C259.84 169.501 261.734 167.606 261.734 165.27C261.734 162.933 259.84 161.039 257.503 161.039C255.167 161.039 253.272 162.933 253.272 165.27C253.272 167.606 255.167 169.501 257.503 169.501Z" fill="#292A2E"/>
    <path d="M250.575 176.688C250.819 176.688 251.061 176.742 251.281 176.846C251.502 176.95 251.697 177.103 251.851 177.292C252.006 177.481 252.116 177.702 252.175 177.939C252.233 178.176 252.238 178.423 252.188 178.663C251.281 182.904 247.512 185.571 242.999 185.571C238.486 185.571 234.716 182.906 233.809 178.663C233.76 178.423 233.765 178.176 233.823 177.939C233.881 177.702 233.992 177.481 234.146 177.292C234.301 177.103 234.496 176.95 234.716 176.846C234.937 176.742 235.179 176.688 235.423 176.688H250.575Z" fill="white"/>
    <path d="M242.999 186.086C238.137 186.086 234.242 183.146 233.306 178.77C233.239 178.459 233.243 178.136 233.318 177.826C233.393 177.517 233.536 177.228 233.737 176.981C233.94 176.729 234.196 176.526 234.488 176.386C234.78 176.247 235.099 176.175 235.423 176.175H250.576C250.9 176.175 251.219 176.247 251.511 176.386C251.803 176.526 252.06 176.729 252.262 176.981C252.463 177.228 252.607 177.517 252.681 177.826C252.756 178.136 252.76 178.459 252.693 178.77C251.756 183.146 247.86 186.086 242.999 186.086ZM235.422 177.203C235.252 177.203 235.084 177.241 234.931 177.314C234.778 177.388 234.643 177.494 234.536 177.627C234.432 177.755 234.358 177.905 234.319 178.065C234.28 178.226 234.278 178.393 234.312 178.555C235.143 182.443 238.634 185.056 242.998 185.056C247.362 185.056 250.853 182.443 251.684 178.555C251.719 178.393 251.716 178.226 251.677 178.065C251.639 177.905 251.564 177.755 251.459 177.627C251.353 177.494 251.218 177.388 251.065 177.314C250.912 177.241 250.744 177.203 250.574 177.203H235.422Z" fill="#292A2E"/>
    <path d="M342.449 293.74C319.612 323.681 283.563 343 243.002 343C202.442 343 166.393 323.681 143.556 293.74C169.625 283.932 204.578 277.935 243.002 277.935C281.427 277.935 316.377 283.932 342.449 293.74Z" fill="#7F5BEB"/>
    <path d="M352.94 158.466L288.788 158.192C288.788 147.478 294.823 145.369 301.238 143.629C307.654 141.889 310.54 130.113 321.688 129.442C328.272 129.046 331.725 130.741 334.584 132.922C334.588 132.926 334.588 132.93 334.592 132.93C341.756 140.638 347.92 149.218 352.94 158.466Z" fill="white"/>
    <path d="M169.946 238.076L119.642 238.293C118.783 233.04 118.261 227.738 118.081 222.42C129.1 220.858 127.973 212.101 141.131 212.897C150.894 213.484 153.429 223.798 159.045 225.321C164.661 226.844 169.946 228.696 169.946 238.076Z" fill="white"/>
    <path d="M200.78 377.9H194.7L193.58 381H191.66L196.7 367.14H198.8L203.82 381H201.9L200.78 377.9ZM200.26 376.42L197.74 369.38L195.22 376.42H200.26ZM206.137 375.48C206.137 374.36 206.363 373.38 206.817 372.54C207.27 371.687 207.89 371.027 208.677 370.56C209.477 370.093 210.37 369.86 211.357 369.86C212.21 369.86 213.003 370.06 213.737 370.46C214.47 370.847 215.03 371.36 215.417 372V366.2H217.257V381H215.417V378.94C215.057 379.593 214.523 380.133 213.817 380.56C213.11 380.973 212.283 381.18 211.337 381.18C210.363 381.18 209.477 380.94 208.677 380.46C207.89 379.98 207.27 379.307 206.817 378.44C206.363 377.573 206.137 376.587 206.137 375.48ZM215.417 375.5C215.417 374.673 215.25 373.953 214.917 373.34C214.583 372.727 214.13 372.26 213.557 371.94C212.997 371.607 212.377 371.44 211.697 371.44C211.017 371.44 210.397 371.6 209.837 371.92C209.277 372.24 208.83 372.707 208.497 373.32C208.163 373.933 207.997 374.653 207.997 375.48C207.997 376.32 208.163 377.053 208.497 377.68C208.83 378.293 209.277 378.767 209.837 379.1C210.397 379.42 211.017 379.58 211.697 379.58C212.377 379.58 212.997 379.42 213.557 379.1C214.13 378.767 214.583 378.293 214.917 377.68C215.25 377.053 215.417 376.327 215.417 375.5ZM220.452 375.48C220.452 374.36 220.679 373.38 221.132 372.54C221.586 371.687 222.206 371.027 222.992 370.56C223.792 370.093 224.686 369.86 225.672 369.86C226.526 369.86 227.319 370.06 228.052 370.46C228.786 370.847 229.346 371.36 229.732 372V366.2H231.572V381H229.732V378.94C229.372 379.593 228.839 380.133 228.132 380.56C227.426 380.973 226.599 381.18 225.652 381.18C224.679 381.18 223.792 380.94 222.992 380.46C222.206 379.98 221.586 379.307 221.132 378.44C220.679 377.573 220.452 376.587 220.452 375.48ZM229.732 375.5C229.732 374.673 229.566 373.953 229.232 373.34C228.899 372.727 228.446 372.26 227.872 371.94C227.312 371.607 226.692 371.44 226.012 371.44C225.332 371.44 224.712 371.6 224.152 371.92C223.592 372.24 223.146 372.707 222.812 373.32C222.479 373.933 222.312 374.653 222.312 375.48C222.312 376.32 222.479 377.053 222.812 377.68C223.146 378.293 223.592 378.767 224.152 379.1C224.712 379.42 225.332 379.58 226.012 379.58C226.692 379.58 227.312 379.42 227.872 379.1C228.446 378.767 228.899 378.293 229.232 377.68C229.566 377.053 229.732 376.327 229.732 375.5ZM240.9 375.48C240.9 374.36 241.127 373.38 241.58 372.54C242.033 371.687 242.653 371.027 243.44 370.56C244.24 370.093 245.127 369.86 246.1 369.86C247.06 369.86 247.893 370.067 248.6 370.48C249.307 370.893 249.833 371.413 250.18 372.04V370.04H252.02V381H250.18V378.96C249.82 379.6 249.28 380.133 248.56 380.56C247.853 380.973 247.027 381.18 246.08 381.18C245.107 381.18 244.227 380.94 243.44 380.46C242.653 379.98 242.033 379.307 241.58 378.44C241.127 377.573 240.9 376.587 240.9 375.48ZM250.18 375.5C250.18 374.673 250.013 373.953 249.68 373.34C249.347 372.727 248.893 372.26 248.32 371.94C247.76 371.607 247.14 371.44 246.46 371.44C245.78 371.44 245.16 371.6 244.6 371.92C244.04 372.24 243.593 372.707 243.26 373.32C242.927 373.933 242.76 374.653 242.76 375.48C242.76 376.32 242.927 377.053 243.26 377.68C243.593 378.293 244.04 378.767 244.6 379.1C245.16 379.42 245.78 379.58 246.46 379.58C247.14 379.58 247.76 379.42 248.32 379.1C248.893 378.767 249.347 378.293 249.68 377.68C250.013 377.053 250.18 376.327 250.18 375.5ZM263.008 368.26C262.661 368.26 262.368 368.14 262.128 367.9C261.901 367.66 261.788 367.367 261.788 367.02C261.788 366.673 261.901 366.38 262.128 366.14C262.368 365.9 262.661 365.78 263.008 365.78C263.354 365.78 263.641 365.9 263.868 366.14C264.108 366.38 264.228 366.673 264.228 367.02C264.228 367.367 264.108 367.66 263.868 367.9C263.641 368.14 263.354 368.26 263.008 368.26ZM263.908 383.38C263.908 384.353 263.661 385.067 263.168 385.52C262.674 385.973 261.954 386.2 261.008 386.2H259.948V384.66H260.708C261.214 384.66 261.568 384.56 261.768 384.36C261.981 384.16 262.088 383.82 262.088 383.34V370.04H263.908V383.38ZM272.568 381.18C271.542 381.18 270.608 380.947 269.768 380.48C268.942 380.013 268.288 379.353 267.808 378.5C267.342 377.633 267.108 376.633 267.108 375.5C267.108 374.38 267.348 373.393 267.828 372.54C268.322 371.673 268.988 371.013 269.828 370.56C270.668 370.093 271.608 369.86 272.648 369.86C273.688 369.86 274.628 370.093 275.468 370.56C276.308 371.013 276.968 371.667 277.448 372.52C277.942 373.373 278.188 374.367 278.188 375.5C278.188 376.633 277.935 377.633 277.428 378.5C276.935 379.353 276.262 380.013 275.408 380.48C274.555 380.947 273.608 381.18 272.568 381.18ZM272.568 379.58C273.222 379.58 273.835 379.427 274.408 379.12C274.982 378.813 275.442 378.353 275.788 377.74C276.148 377.127 276.328 376.38 276.328 375.5C276.328 374.62 276.155 373.873 275.808 373.26C275.462 372.647 275.008 372.193 274.448 371.9C273.888 371.593 273.282 371.44 272.628 371.44C271.962 371.44 271.348 371.593 270.788 371.9C270.242 372.193 269.802 372.647 269.468 373.26C269.135 373.873 268.968 374.62 268.968 375.5C268.968 376.393 269.128 377.147 269.448 377.76C269.782 378.373 270.222 378.833 270.768 379.14C271.315 379.433 271.915 379.58 272.568 379.58ZM283.201 372.08C283.575 371.427 284.121 370.893 284.841 370.48C285.561 370.067 286.381 369.86 287.301 369.86C288.288 369.86 289.175 370.093 289.961 370.56C290.748 371.027 291.368 371.687 291.821 372.54C292.275 373.38 292.501 374.36 292.501 375.48C292.501 376.587 292.275 377.573 291.821 378.44C291.368 379.307 290.741 379.98 289.941 380.46C289.155 380.94 288.275 381.18 287.301 381.18C286.355 381.18 285.521 380.973 284.801 380.56C284.095 380.147 283.561 379.62 283.201 378.98V381H281.381V366.2H283.201V372.08ZM290.641 375.48C290.641 374.653 290.475 373.933 290.141 373.32C289.808 372.707 289.355 372.24 288.781 371.92C288.221 371.6 287.601 371.44 286.921 371.44C286.255 371.44 285.635 371.607 285.061 371.94C284.501 372.26 284.048 372.733 283.701 373.36C283.368 373.973 283.201 374.687 283.201 375.5C283.201 376.327 283.368 377.053 283.701 377.68C284.048 378.293 284.501 378.767 285.061 379.1C285.635 379.42 286.255 379.58 286.921 379.58C287.601 379.58 288.221 379.42 288.781 379.1C289.355 378.767 289.808 378.293 290.141 377.68C290.475 377.053 290.641 376.32 290.641 375.48Z" fill="#757575"/>
    <path d="M42.6667 3.29786L42.6667 38.1842C42.6667 40.4812 40.8046 42.3432 38.5077 42.3432L5.15902 42.3432C2.86206 42.3432 0.999997 44.2053 0.999997 46.5022L0.999994 374L155.583 374" stroke="#757575" stroke-linejoin="round"/>
    <path d="M55.166 14.7803C50.2845 9.39858 47.5476 6.38127 42.666 0.999572L30.166 14.7803" stroke="#757575" stroke-linejoin="round"/>
</svg>