<svg width="250" height="294" viewBox="0 0 250 294" fill="none" xmlns="http://www.w3.org/2000/svg">
    <path opacity="0.1" d="M125 249.998C194.036 249.998 250 194.034 250 124.999C250 55.9641 194.036 0 125 0C55.9645 0 0 55.9641 0 124.999C0 194.034 55.9645 249.998 125 249.998Z" fill="#7F5BEB"/>
    <path d="M70.9191 87.5046C71.3711 86.9979 71.9184 86.5852 72.5298 86.29C73.1412 85.9949 73.8048 85.823 74.4826 85.7843C75.1605 85.7455 75.8393 85.8407 76.4804 86.0643C77.1215 86.2879 77.7122 86.6356 78.2189 87.0876L94.7186 101.804L87.8357 109.521L71.3359 94.8046C70.8292 94.3527 70.4165 93.8053 70.1213 93.1939C69.8261 92.5824 69.6543 91.9188 69.6156 91.2409C69.5769 90.5631 69.6721 89.8842 69.8957 89.2431C70.1194 88.602 70.4672 88.0113 70.9191 87.5046Z" fill="white"/>
    <path d="M87.8758 110.241L70.9963 95.1849C70.4395 94.6884 69.9861 94.0871 69.6617 93.4153C69.3374 92.7434 69.1485 92.0143 69.1059 91.2695C69.0634 90.5247 69.1679 89.7789 69.4136 89.0745C69.6593 88.3701 70.0413 87.721 70.5379 87.1643C71.0344 86.6075 71.6358 86.154 72.3076 85.8297C72.9794 85.5053 73.7085 85.3165 74.4533 85.2739C75.1981 85.2313 75.944 85.3359 76.6484 85.5816C77.3528 85.8273 78.0019 86.2093 78.5586 86.7058L95.4401 101.762L87.8758 110.241ZM74.782 86.2855C74.6917 86.2855 74.6011 86.288 74.5102 86.2931C73.5901 86.3459 72.7063 86.6704 71.9706 87.2254C71.2349 87.7805 70.6803 88.5412 70.3769 89.4114C70.0735 90.2817 70.035 91.2223 70.2662 92.1145C70.4975 93.0066 70.988 93.8101 71.6759 94.4235L87.7947 108.8L93.9978 101.845L77.879 87.4688C77.0288 86.7056 75.9261 86.2841 74.7836 86.2855H74.782Z" fill="#292A2E"/>
    <path d="M162.162 109.52L155.279 101.803L171.779 87.0871C172.802 86.1744 174.146 85.7056 175.515 85.7838C176.884 85.862 178.166 86.4809 179.079 87.5042C179.992 88.5275 180.46 89.8714 180.382 91.2404C180.304 92.6094 179.685 93.8912 178.662 94.8039L162.162 109.52Z" fill="white"/>
    <path d="M162.123 110.241L154.561 101.762L171.442 86.7058C172.566 85.703 174.043 85.1879 175.547 85.2739C177.051 85.3599 178.46 86.0399 179.462 87.1643C180.465 88.2887 180.98 89.7654 180.894 91.2695C180.808 92.7737 180.128 94.1821 179.004 95.185L162.123 110.241ZM156.002 101.844L162.206 108.799L178.324 94.4235C178.781 94.0162 179.153 93.5229 179.419 92.9719C179.685 92.4208 179.84 91.8228 179.875 91.2119C179.91 90.601 179.824 89.9892 179.622 89.4114C179.421 88.8337 179.107 88.3013 178.7 87.8446C178.293 87.388 177.8 87.016 177.249 86.75C176.697 86.484 176.099 86.3291 175.488 86.2942C174.878 86.2593 174.266 86.3451 173.688 86.5466C173.11 86.7482 172.578 87.0616 172.121 87.4689L156.002 101.844Z" fill="#292A2E"/>
    <path d="M169.035 119.092C172.715 135.391 177.754 145.876 175.244 151.899C173.926 155.064 171.218 157.718 166.737 157.718C159.752 157.718 159.752 149.481 152.767 149.481C145.781 149.481 145.782 157.718 138.798 157.718C131.813 157.718 131.814 149.481 124.83 149.481C117.846 149.481 117.845 157.718 110.861 157.718C103.877 157.718 103.877 149.481 96.893 149.481C89.9091 149.481 89.9098 157.718 82.9266 157.718C78.7803 157.718 76.4364 155.277 74.95 152.454C71.3779 145.675 79.7032 130.757 82.9266 117.601C86.4881 103.065 86.188 84.9582 86.6659 74.0378C87.5877 52.9782 103.753 35.8696 124.834 35.8696C145.916 35.8696 161.467 53.014 163.003 74.0378C163.831 85.3717 165.665 104.173 169.035 119.092Z" fill="white"/>
    <path d="M166.738 158.234C163.006 158.234 161.153 156.047 159.36 153.931C157.643 151.906 156.021 149.994 152.767 149.994C149.513 149.994 147.894 151.906 146.175 153.931C144.382 156.045 142.529 158.234 138.798 158.234C135.067 158.234 133.214 156.047 131.421 153.931C129.705 151.906 128.083 149.994 124.83 149.994C121.577 149.994 119.956 151.906 118.239 153.931C116.446 156.045 114.592 158.234 110.861 158.234C107.13 158.234 105.276 156.047 103.487 153.934C101.77 151.909 100.149 149.997 96.8952 149.997C93.6417 149.997 92.0217 151.909 90.3045 153.934C88.5123 156.048 86.6589 158.236 82.9287 158.236C79.2184 158.236 76.4603 156.424 74.4964 152.697C72.006 147.97 74.9971 139.613 78.1645 130.766C79.7373 126.372 81.3627 121.828 82.4288 117.482C85.2772 105.857 85.6377 92.196 85.9271 81.2188C85.9953 78.6225 86.06 76.1698 86.1555 74.0186C86.6124 63.5943 90.7572 53.8922 97.828 46.6989C101.342 43.0975 105.544 40.2381 110.183 38.2902C114.823 36.3422 119.806 35.3453 124.838 35.3585C129.838 35.3467 134.788 36.3467 139.391 38.2983C143.994 40.2499 148.154 43.1128 151.621 46.7145C158.529 53.8264 162.754 63.5185 163.52 74.0038C164.259 84.114 166.022 103.4 169.541 118.983C170.734 124.268 172.07 128.936 173.248 133.055C175.708 141.656 177.487 147.87 175.723 152.1C174.765 154.39 172.329 158.234 166.738 158.234ZM152.767 148.966C156.498 148.966 158.352 151.152 160.145 153.268C161.862 155.293 163.484 157.205 166.738 157.205C171.731 157.205 173.913 153.758 174.77 151.702C176.394 147.804 174.655 141.736 172.254 133.336C171.074 129.204 169.732 124.521 168.533 119.208C164.999 103.56 163.23 84.2156 162.49 74.0772C160.92 52.5897 144.732 36.3862 124.834 36.3862C104.645 36.3862 88.105 52.9351 87.1786 74.062C87.0849 76.2041 87.0202 78.6522 86.9502 81.2439C86.6749 91.6884 86.2976 105.992 83.4229 117.726C82.3458 122.123 80.7098 126.693 79.1282 131.112C76.0396 139.739 73.1223 147.89 75.4018 152.216C77.1707 155.573 79.6307 157.204 82.923 157.204C86.1761 157.204 87.7966 155.292 89.5137 153.267C91.3059 151.153 93.1593 148.965 96.8895 148.965C100.62 148.965 102.474 151.151 104.266 153.267C105.983 155.292 107.604 157.204 110.857 157.204C114.111 157.204 115.733 155.292 117.449 153.267C119.242 151.153 121.096 148.965 124.826 148.965C128.557 148.965 130.411 151.151 132.203 153.267C133.92 155.292 135.54 157.204 138.794 157.204C142.048 157.204 143.67 155.292 145.386 153.267C147.183 151.154 149.036 148.966 152.767 148.966Z" fill="#292A2E"/>
    <path d="M110.492 76.5007C112.828 76.5007 114.722 74.6065 114.722 72.2699C114.722 69.9333 112.828 68.0391 110.492 68.0391C108.155 68.0391 106.261 69.9333 106.261 72.2699C106.261 74.6065 108.155 76.5007 110.492 76.5007Z" fill="#292A2E"/>
    <path d="M139.503 76.5007C141.84 76.5007 143.734 74.6065 143.734 72.2699C143.734 69.9333 141.84 68.0391 139.503 68.0391C137.167 68.0391 135.272 69.9333 135.272 72.2699C135.272 74.6065 137.167 76.5007 139.503 76.5007Z" fill="#292A2E"/>
    <path d="M132.575 83.6885C132.819 83.6879 133.061 83.7417 133.281 83.8461C133.502 83.9505 133.697 84.1027 133.851 84.2918C134.006 84.4809 134.116 84.702 134.175 84.9392C134.233 85.1763 134.238 85.4235 134.188 85.6626C133.281 89.9045 129.512 92.5708 124.999 92.5708C120.486 92.5708 116.716 89.9056 115.809 85.6626C115.76 85.4234 115.765 85.1762 115.823 84.9391C115.881 84.7019 115.992 84.4808 116.146 84.2917C116.301 84.1026 116.496 83.9503 116.716 83.846C116.937 83.7416 117.179 83.6878 117.423 83.6885H132.575Z" fill="white"/>
    <path d="M124.999 93.0856C120.137 93.0856 116.242 90.1459 115.306 85.77C115.239 85.4585 115.243 85.136 115.318 84.8263C115.393 84.5166 115.536 84.2276 115.737 83.9806C115.94 83.7287 116.196 83.5255 116.488 83.3861C116.78 83.2468 117.099 83.1747 117.423 83.1753H132.576C132.9 83.1748 133.219 83.2469 133.511 83.3862C133.803 83.5256 134.06 83.7287 134.262 83.9806C134.463 84.2276 134.607 84.5166 134.681 84.8263C134.756 85.136 134.76 85.4585 134.693 85.77C133.756 90.1459 129.86 93.0856 124.999 93.0856ZM117.422 84.2033C117.252 84.2031 117.084 84.2411 116.931 84.3144C116.778 84.3876 116.643 84.4944 116.536 84.6267C116.432 84.7548 116.358 84.9047 116.319 85.0653C116.28 85.226 116.278 85.3933 116.312 85.5549C117.143 89.4434 120.634 92.0561 124.998 92.0561C129.362 92.0561 132.853 89.4434 133.684 85.5549C133.719 85.3932 133.716 85.2259 133.677 85.0652C133.639 84.9046 133.564 84.7547 133.459 84.6267C133.353 84.4944 133.218 84.3876 133.065 84.3143C132.912 84.2411 132.744 84.2031 132.574 84.2033H117.422Z" fill="#292A2E"/>
    <path d="M224.449 200.74C201.612 230.681 165.563 250 125.002 250C84.4415 250 48.3927 230.681 25.5557 200.74C51.6252 190.932 86.5775 184.935 125.002 184.935C163.427 184.935 198.377 190.932 224.449 200.74Z" fill="#7F5BEB"/>
    <path d="M234.94 65.4664L170.788 65.1922C170.788 54.4782 176.823 52.3689 183.238 50.6289C189.654 48.8889 192.54 37.1126 203.688 36.4425C210.272 36.0465 213.725 37.7408 216.584 39.9224C216.588 39.9263 216.588 39.9301 216.592 39.9301C223.756 47.6381 229.92 56.2178 234.94 65.4664Z" fill="white"/>
    <path d="M51.946 145.076L1.64211 145.293C0.782862 140.04 0.261441 134.738 0.0810547 129.42C11.0998 127.858 9.97278 119.101 23.1313 119.897C32.8936 120.484 35.4293 130.798 41.0453 132.321C46.6613 133.844 51.946 135.696 51.946 145.076Z" fill="white"/>
    <path d="M82.78 284.9H76.7L75.58 288H73.66L78.7 274.14H80.8L85.82 288H83.9L82.78 284.9ZM82.26 283.42L79.74 276.38L77.22 283.42H82.26ZM88.1366 282.48C88.1366 281.36 88.3632 280.38 88.8166 279.54C89.2699 278.687 89.8899 278.027 90.6766 277.56C91.4766 277.093 92.3699 276.86 93.3566 276.86C94.2099 276.86 95.0032 277.06 95.7366 277.46C96.4699 277.847 97.0299 278.36 97.4166 279V273.2H99.2566V288H97.4166V285.94C97.0566 286.593 96.5232 287.133 95.8166 287.56C95.1099 287.973 94.2832 288.18 93.3366 288.18C92.3632 288.18 91.4766 287.94 90.6766 287.46C89.8899 286.98 89.2699 286.307 88.8166 285.44C88.3632 284.573 88.1366 283.587 88.1366 282.48ZM97.4166 282.5C97.4166 281.673 97.2499 280.953 96.9166 280.34C96.5832 279.727 96.1299 279.26 95.5566 278.94C94.9966 278.607 94.3766 278.44 93.6966 278.44C93.0166 278.44 92.3966 278.6 91.8366 278.92C91.2766 279.24 90.8299 279.707 90.4966 280.32C90.1632 280.933 89.9966 281.653 89.9966 282.48C89.9966 283.32 90.1632 284.053 90.4966 284.68C90.8299 285.293 91.2766 285.767 91.8366 286.1C92.3966 286.42 93.0166 286.58 93.6966 286.58C94.3766 286.58 94.9966 286.42 95.5566 286.1C96.1299 285.767 96.5832 285.293 96.9166 284.68C97.2499 284.053 97.4166 283.327 97.4166 282.5ZM102.452 282.48C102.452 281.36 102.679 280.38 103.132 279.54C103.586 278.687 104.206 278.027 104.992 277.56C105.792 277.093 106.686 276.86 107.672 276.86C108.526 276.86 109.319 277.06 110.052 277.46C110.786 277.847 111.346 278.36 111.732 279V273.2H113.572V288H111.732V285.94C111.372 286.593 110.839 287.133 110.132 287.56C109.426 287.973 108.599 288.18 107.652 288.18C106.679 288.18 105.792 287.94 104.992 287.46C104.206 286.98 103.586 286.307 103.132 285.44C102.679 284.573 102.452 283.587 102.452 282.48ZM111.732 282.5C111.732 281.673 111.566 280.953 111.232 280.34C110.899 279.727 110.446 279.26 109.872 278.94C109.312 278.607 108.692 278.44 108.012 278.44C107.332 278.44 106.712 278.6 106.152 278.92C105.592 279.24 105.146 279.707 104.812 280.32C104.479 280.933 104.312 281.653 104.312 282.48C104.312 283.32 104.479 284.053 104.812 284.68C105.146 285.293 105.592 285.767 106.152 286.1C106.712 286.42 107.332 286.58 108.012 286.58C108.692 286.58 109.312 286.42 109.872 286.1C110.446 285.767 110.899 285.293 111.232 284.68C111.566 284.053 111.732 283.327 111.732 282.5ZM122.9 282.48C122.9 281.36 123.127 280.38 123.58 279.54C124.033 278.687 124.653 278.027 125.44 277.56C126.24 277.093 127.127 276.86 128.1 276.86C129.06 276.86 129.893 277.067 130.6 277.48C131.307 277.893 131.833 278.413 132.18 279.04V277.04H134.02V288H132.18V285.96C131.82 286.6 131.28 287.133 130.56 287.56C129.853 287.973 129.027 288.18 128.08 288.18C127.107 288.18 126.227 287.94 125.44 287.46C124.653 286.98 124.033 286.307 123.58 285.44C123.127 284.573 122.9 283.587 122.9 282.48ZM132.18 282.5C132.18 281.673 132.013 280.953 131.68 280.34C131.347 279.727 130.893 279.26 130.32 278.94C129.76 278.607 129.14 278.44 128.46 278.44C127.78 278.44 127.16 278.6 126.6 278.92C126.04 279.24 125.593 279.707 125.26 280.32C124.927 280.933 124.76 281.653 124.76 282.48C124.76 283.32 124.927 284.053 125.26 284.68C125.593 285.293 126.04 285.767 126.6 286.1C127.16 286.42 127.78 286.58 128.46 286.58C129.14 286.58 129.76 286.42 130.32 286.1C130.893 285.767 131.347 285.293 131.68 284.68C132.013 284.053 132.18 283.327 132.18 282.5ZM145.008 275.26C144.661 275.26 144.368 275.14 144.128 274.9C143.901 274.66 143.788 274.367 143.788 274.02C143.788 273.673 143.901 273.38 144.128 273.14C144.368 272.9 144.661 272.78 145.008 272.78C145.354 272.78 145.641 272.9 145.868 273.14C146.108 273.38 146.228 273.673 146.228 274.02C146.228 274.367 146.108 274.66 145.868 274.9C145.641 275.14 145.354 275.26 145.008 275.26ZM145.908 290.38C145.908 291.353 145.661 292.067 145.168 292.52C144.674 292.973 143.954 293.2 143.008 293.2H141.948V291.66H142.708C143.214 291.66 143.568 291.56 143.768 291.36C143.981 291.16 144.088 290.82 144.088 290.34V277.04H145.908V290.38ZM154.568 288.18C153.542 288.18 152.608 287.947 151.768 287.48C150.942 287.013 150.288 286.353 149.808 285.5C149.342 284.633 149.108 283.633 149.108 282.5C149.108 281.38 149.348 280.393 149.828 279.54C150.322 278.673 150.988 278.013 151.828 277.56C152.668 277.093 153.608 276.86 154.648 276.86C155.688 276.86 156.628 277.093 157.468 277.56C158.308 278.013 158.968 278.667 159.448 279.52C159.942 280.373 160.188 281.367 160.188 282.5C160.188 283.633 159.935 284.633 159.428 285.5C158.935 286.353 158.262 287.013 157.408 287.48C156.555 287.947 155.608 288.18 154.568 288.18ZM154.568 286.58C155.222 286.58 155.835 286.427 156.408 286.12C156.982 285.813 157.442 285.353 157.788 284.74C158.148 284.127 158.328 283.38 158.328 282.5C158.328 281.62 158.155 280.873 157.808 280.26C157.462 279.647 157.008 279.193 156.448 278.9C155.888 278.593 155.282 278.44 154.628 278.44C153.962 278.44 153.348 278.593 152.788 278.9C152.242 279.193 151.802 279.647 151.468 280.26C151.135 280.873 150.968 281.62 150.968 282.5C150.968 283.393 151.128 284.147 151.448 284.76C151.782 285.373 152.222 285.833 152.768 286.14C153.315 286.433 153.915 286.58 154.568 286.58ZM165.201 279.08C165.575 278.427 166.121 277.893 166.841 277.48C167.561 277.067 168.381 276.86 169.301 276.86C170.288 276.86 171.175 277.093 171.961 277.56C172.748 278.027 173.368 278.687 173.821 279.54C174.275 280.38 174.501 281.36 174.501 282.48C174.501 283.587 174.275 284.573 173.821 285.44C173.368 286.307 172.741 286.98 171.941 287.46C171.155 287.94 170.275 288.18 169.301 288.18C168.355 288.18 167.521 287.973 166.801 287.56C166.095 287.147 165.561 286.62 165.201 285.98V288H163.381V273.2H165.201V279.08ZM172.641 282.48C172.641 281.653 172.475 280.933 172.141 280.32C171.808 279.707 171.355 279.24 170.781 278.92C170.221 278.6 169.601 278.44 168.921 278.44C168.255 278.44 167.635 278.607 167.061 278.94C166.501 279.26 166.048 279.733 165.701 280.36C165.368 280.973 165.201 281.687 165.201 282.5C165.201 283.327 165.368 284.053 165.701 284.68C166.048 285.293 166.501 285.767 167.061 286.1C167.635 286.42 168.255 286.58 168.921 286.58C169.601 286.58 170.221 286.42 170.781 286.1C171.355 285.767 171.808 285.293 172.141 284.68C172.475 284.053 172.641 283.32 172.641 282.48Z" fill="#757575"/>
</svg>
    