<svg width="368" height="100" viewBox="0 0 368 100" fill="none" xmlns="http://www.w3.org/2000/svg"
    xmlns:xlink="http://www.w3.org/1999/xlink">
    <g id="l4Ki5w65v7CMzIxdGYlSECo" fill="rgb(255,255,255)" style="transform: none;">
        <g style="transform: none;">
            <path id="pl1QA1Wyc"
                d="M2352 4080 c-17 -16 -35 -20 -87 -20 -37 0 -65 -4 -65 -10 0 -5 -18 -10 -40 -10 -22 0 -40 -4 -40 -8 0 -12 -78 -52 -101 -52 -10 0 -19 -4 -19 -10 0 -5 -9 -10 -20 -10 -11 0 -20 -4 -20 -8 0 -5 -21 -20 -47 -33 -52 -26 -64 -34 -92 -62 -10 -10 -28 -19 -39 -20 -11 0 -18 -5 -16 -9 3 -4 0 -8 -6 -8 -14 0 -240 -227 -240 -241 0 -6 -13 -24 -30 -39 -16 -15 -30 -35 -30 -44 0 -9 -4 -16 -10 -16 -5 0 -10 -13 -10 -30 0 -16 -4 -30 -10 -30 -5 0 -10 -7 -10 -16 0 -8 -4 -12 -10 -9 -5 3 -10 -2 -10 -12 0 -10 -9 -25 -20 -33 -13 -9 -20 -26 -20 -48 0 -19 -8 -42 -20 -54 -12 -13 -20 -36 -20 -54 0 -18 -4 -35 -8 -38 -4 -2 -9 -19 -10 -36 -2 -23 1 -30 10 -24 7 4 3 -3 -9 -15 -21 -20 -23 -30 -23 -141 0 -73 -4 -120 -10 -120 -5 0 -10 -18 -10 -40 0 -22 5 -40 10 -40 6 0 10 -43 10 -110 0 -100 2 -111 22 -131 13 -12 17 -19 11 -15 -9 5 -13 -3 -13 -28 0 -19 6 -36 12 -38 7 -3 11 -18 10 -37 -2 -23 4 -39 18 -51 11 -9 20 -29 20 -44 0 -14 5 -26 10 -26 6 0 10 -9 10 -20 0 -11 5 -20 10 -20 6 0 10 -6 10 -13 0 -7 9 -23 20 -35 11 -12 20 -33 20 -47 0 -14 5 -25 10 -25 6 0 10 -7 10 -16 0 -8 18 -33 40 -54 22 -21 40 -43 40 -49 0 -13 206 -221 218 -221 5 0 23 -13 40 -30 18 -16 38 -30 46 -30 8 0 16 -3 18 -7 2 -5 24 -19 51 -32 26 -13 47 -28 47 -33 0 -4 9 -8 20 -8 11 0 20 -4 20 -10 0 -5 8 -10 18 -10 22 0 72 -22 72 -32 0 -5 5 -8 11 -8 5 0 7 5 4 11 -4 6 2 5 14 -3 12 -7 21 -16 21 -20 0 -5 14 -8 30 -8 17 0 30 -4 30 -10 0 -5 22 -10 48 -10 48 0 102 -18 102 -33 0 -4 28 -7 62 -6 40 2 63 -2 66 -9 2 -8 30 -12 80 -12 65 0 79 3 100 23 14 12 22 16 18 10 -6 -10 14 -13 83 -13 54 0 91 4 91 10 0 6 7 10 15 10 8 0 15 5 15 10 0 6 23 10 50 10 28 0 50 5 50 10 0 6 14 10 30 10 17 0 30 4 30 8 0 12 78 52 101 52 10 0 19 5 19 10 0 6 9 10 20 10 26 0 26 15 0 37 -11 10 -20 22 -20 28 0 6 -9 17 -20 25 -11 8 -20 20 -20 28 0 41 -57 54 -92 22 -15 -13 -36 -20 -63 -20 -29 0 -45 -6 -55 -20 -12 -17 -26 -20 -92 -20 -45 0 -78 -4 -78 -10 0 -6 -60 -10 -160 -10 -100 0 -160 4 -160 10 0 6 -32 10 -75 10 -63 0 -80 4 -98 20 -12 12 -23 16 -25 10 -2 -6 -16 -2 -32 10 -16 12 -30 16 -32 10 -2 -6 -13 -2 -25 10 -12 11 -29 20 -38 20 -8 0 -15 5 -15 10 0 6 -7 10 -15 10 -9 0 -26 9 -38 20 -13 13 -23 16 -25 10 -5 -14 -42 18 -42 37 0 7 -11 13 -25 13 -19 0 -53 27 -130 105 -58 58 -105 112 -105 120 0 8 -4 15 -9 15 -5 0 -13 9 -16 20 -3 11 -11 20 -16 20 -18 0 -39 28 -39 52 0 13 -9 30 -20 38 -11 8 -20 25 -20 37 0 13 -4 23 -10 23 -5 0 -10 7 -10 15 0 8 -4 15 -10 15 -5 0 -10 5 -10 11 0 5 4 8 9 5 5 -4 4 5 -2 19 -7 14 -15 25 -19 25 -5 0 -8 12 -8 26 0 14 -6 32 -14 39 -21 21 -30 86 -14 96 10 7 10 9 1 9 -7 0 -13 7 -13 15 0 8 -4 15 -10 15 -6 0 -10 67 -10 180 0 113 4 180 10 180 6 0 10 7 10 15 0 8 5 15 10 15 6 0 9 19 9 43 -2 42 -2 42 -9 7 -7 -35 -7 -35 -9 6 -1 29 5 46 19 59 11 10 20 31 20 47 0 15 5 28 10 28 6 0 10 9 10 21 0 11 10 35 22 52 12 17 17 27 10 23 -23 -14 -12 11 18 42 16 18 30 39 30 47 0 8 5 15 10 15 6 0 10 6 10 13 0 8 9 22 20 32 11 10 20 24 20 32 0 19 66 83 85 83 8 0 15 7 15 16 0 22 97 112 143 132 20 9 37 20 37 24 0 5 8 8 18 8 10 0 24 9 32 20 8 11 20 20 27 20 7 0 13 5 13 10 0 6 7 10 15 10 8 0 15 5 15 10 0 6 18 10 40 10 22 0 40 5 40 10 0 6 9 10 20 10 11 0 20 3 20 8 0 4 9 13 21 20 12 8 18 9 14 3 -3 -7 2 -11 14 -11 12 0 21 5 21 10 0 6 7 10 15 10 8 0 15 5 15 10 0 6 33 10 80 10 47 0 80 4 80 10 0 6 50 10 130 10 80 0 130 -4 130 -10 0 -5 22 -10 48 -10 47 0 102 -18 102 -33 0 -4 19 -7 42 -5 26 1 43 -3 46 -10 2 -7 12 -12 23 -12 10 0 19 -4 19 -10 0 -5 9 -10 20 -10 11 0 20 -4 20 -10 0 -5 7 -10 15 -10 8 0 15 -5 15 -11 0 -5 4 -7 10 -4 12 7 80 -23 80 -36 0 -5 9 -9 20 -9 11 0 20 -3 20 -8 0 -4 13 -13 29 -20 16 -7 34 -26 41 -42 9 -21 19 -30 35 -30 13 0 41 -18 66 -43 51 -50 80 -84 62 -73 -7 4 -13 2 -13 -4 0 -13 45 -60 58 -60 5 0 17 -10 28 -22 10 -12 13 -18 7 -14 -25 14 -13 -16 17 -44 17 -15 30 -35 30 -44 0 -9 3 -16 8 -16 4 0 13 -9 20 -21 8 -12 9 -18 3 -14 -20 12 -11 -40 9 -55 11 -8 20 -22 20 -32 0 -10 5 -18 10 -18 6 0 10 -22 10 -50 0 -27 3 -50 8 -50 4 0 13 -9 20 -21 8 -12 9 -18 3 -14 -21 12 -13 -74 9 -98 19 -20 21 -33 19 -150 -1 -102 -4 -133 -17 -148 -17 -20 -27 -143 -10 -133 5 3 4 -3 -4 -15 -7 -12 -16 -21 -20 -21 -5 0 -8 -13 -8 -30 0 -16 -4 -30 -10 -30 -5 0 -10 -13 -10 -28 0 -16 -8 -34 -20 -42 -11 -8 -20 -26 -20 -40 0 -14 -9 -32 -20 -40 -11 -8 -20 -25 -20 -39 0 -23 -36 -65 -49 -56 -4 2 -8 -8 -9 -23 -1 -19 7 -36 28 -55 17 -16 30 -35 30 -43 0 -8 6 -14 13 -14 8 0 22 -10 33 -22 10 -12 13 -18 7 -14 -7 4 -13 3 -13 -2 0 -6 7 -13 16 -16 22 -9 24 -8 24 9 0 8 14 29 30 47 20 21 27 34 19 39 -7 4 0 13 20 25 23 14 31 26 31 46 0 15 5 28 10 28 6 0 10 6 10 13 0 7 9 23 20 35 11 12 20 28 20 37 0 8 5 15 10 15 6 0 10 18 10 40 0 22 5 40 10 40 6 0 10 9 10 21 0 11 5 17 10 14 6 -3 10 -2 10 4 0 5 -6 11 -12 14 -9 3 -6 12 10 29 14 16 22 37 22 61 0 20 5 37 10 37 6 0 10 35 10 85 0 72 3 89 20 107 21 22 28 78 10 78 -5 0 -10 7 -10 15 0 8 -4 15 -10 15 -6 0 -10 47 -10 120 0 73 -4 120 -10 120 -5 0 -10 17 -10 37 0 24 -8 45 -22 61 -13 14 -17 22 -10 18 6 -4 12 -2 12 3 0 6 -6 11 -12 11 -9 0 -8 4 2 10 10 6 11 10 3 10 -7 0 -13 7 -13 15 0 8 -4 15 -10 15 -5 0 -10 18 -10 40 0 22 -4 40 -10 40 -5 0 -10 8 -10 18 0 10 -9 24 -20 32 -11 8 -20 22 -20 32 0 10 -4 18 -10 18 -5 0 -10 14 -10 30 0 22 -5 30 -18 30 -9 0 -23 9 -30 21 -8 12 -9 18 -3 14 6 -3 11 -1 11 4 0 6 -4 11 -10 11 -5 0 -10 6 -10 13 0 7 -9 19 -20 27 -11 8 -20 20 -20 28 0 16 -24 42 -40 42 -15 0 -40 25 -40 39 0 6 -29 41 -65 76 -67 67 -135 114 -135 93 0 -6 -9 -3 -20 7 -11 10 -20 24 -20 32 0 7 -7 13 -15 13 -9 0 -25 9 -37 20 -12 11 -28 20 -35 20 -7 0 -13 5 -13 10 0 6 -9 10 -20 10 -11 0 -20 5 -20 10 0 6 -11 10 -25 10 -14 0 -35 9 -47 20 -12 11 -32 20 -45 20 -13 0 -23 5 -23 10 0 6 -18 10 -40 10 -22 0 -40 5 -40 10 0 6 -25 10 -55 10 -42 0 -61 5 -77 20 -20 19 -36 20 -228 20 -192 0 -208 -1 -228 -20z"></path>
            <path id="pZNx5WQWD"
                d="M4632 3660 c-16 -15 -35 -20 -77 -20 -30 0 -55 -4 -55 -10 0 -5 -14 -10 -30 -10 -18 0 -37 -8 -47 -20 -12 -14 -19 -16 -24 -8 -5 8 -17 1 -37 -20 -17 -18 -35 -32 -41 -32 -15 0 -61 -46 -61 -60 0 -6 -4 -8 -10 -5 -5 3 -10 -2 -10 -12 0 -10 -9 -25 -20 -33 -11 -8 -20 -21 -20 -29 0 -7 -10 -22 -22 -33 -16 -14 -19 -21 -10 -27 9 -5 7 -13 -8 -29 -12 -13 -20 -35 -20 -57 0 -19 -4 -35 -10 -35 -6 0 -10 -53 -10 -140 0 -87 4 -140 10 -140 6 0 10 -17 10 -37 0 -24 8 -45 23 -61 12 -14 16 -22 10 -18 -21 12 -15 -18 6 -34 11 -7 18 -17 15 -22 -6 -10 143 -159 179 -177 15 -8 27 -18 27 -23 0 -4 9 -8 20 -8 11 0 20 -4 20 -10 0 -5 14 -10 30 -10 17 0 30 -4 30 -10 0 -5 7 -10 15 -10 8 0 15 -4 15 -10 0 -6 57 -10 150 -10 93 0 150 4 150 10 0 6 7 10 15 10 8 0 15 5 15 10 0 6 14 10 30 10 17 0 30 5 30 10 0 6 12 10 26 10 16 0 37 12 54 30 17 18 38 30 54 30 16 0 26 6 26 15 0 8 12 22 28 32 35 23 75 67 63 71 -11 4 29 82 41 82 4 0 8 18 8 40 0 22 5 40 10 40 6 0 10 49 10 128 0 116 -2 128 -20 140 -16 10 -20 10 -20 0 -1 -7 -9 -3 -19 10 -19 22 -19 22 -436 22 -376 0 -418 2 -433 17 -12 12 -13 18 -4 21 6 2 12 10 12 18 0 8 5 14 10 14 6 0 10 13 10 29 0 20 8 34 28 47 34 22 52 40 52 52 0 5 10 17 22 28 12 10 18 13 14 7 -4 -7 -2 -13 3 -13 6 0 11 5 11 10 0 6 7 10 15 10 8 0 15 5 15 10 0 6 14 10 30 10 17 0 30 5 30 10 0 6 53 10 140 10 87 0 140 -4 140 -10 0 -5 9 -10 20 -10 11 0 20 -4 20 -10 0 -5 7 -10 15 -10 8 0 15 -4 15 -10 0 -5 6 -7 13 -4 8 3 20 -2 27 -11 7 -8 21 -15 31 -15 11 0 19 -4 19 -10 0 -5 18 -10 40 -10 27 0 40 4 40 13 0 8 9 22 20 32 27 25 25 42 -10 75 -16 15 -30 35 -30 44 0 9 -7 16 -15 16 -9 0 -25 9 -37 20 -12 11 -28 20 -35 20 -7 0 -13 5 -13 10 0 6 -9 10 -20 10 -11 0 -20 5 -20 10 0 6 -32 10 -75 10 -62 0 -80 4 -97 20 -14 12 -36 20 -58 20 -22 0 -44 -8 -58 -20z m448 -635 c10 -11 9 -18 -4 -30 -9 -9 -16 -32 -16 -52 0 -27 -8 -42 -32 -66 -22 -20 -29 -32 -20 -35 10 -3 9 -8 -4 -23 -9 -10 -23 -19 -31 -19 -7 0 -13 -6 -13 -14 0 -22 -51 -66 -76 -66 -13 0 -24 -4 -24 -10 0 -5 -9 -10 -20 -10 -11 0 -20 -3 -20 -8 0 -4 -9 -13 -21 -20 -12 -8 -18 -9 -14 -3 4 8 -32 11 -119 11 -77 0 -126 4 -126 10 0 6 -9 10 -20 10 -11 0 -20 5 -20 10 0 6 -11 10 -25 10 -29 0 -75 40 -75 65 0 8 -4 15 -10 15 -5 0 -10 7 -10 16 0 9 -13 29 -30 44 -16 15 -30 35 -30 44 0 9 -4 16 -10 16 -14 0 -12 88 3 105 19 22 749 22 767 0z"></path>
            <path id="pnsjiA7GI"
                d="M7330 3658 c-14 -13 -35 -18 -75 -18 -30 0 -55 -4 -55 -10 0 -5 -9 -10 -20 -10 -11 0 -20 -4 -20 -8 0 -10 -77 -52 -96 -52 -17 0 -124 -104 -124 -120 0 -6 5 -8 12 -4 7 4 8 3 4 -4 -4 -7 -14 -12 -22 -12 -8 0 -12 -4 -9 -10 3 -5 -1 -10 -9 -10 -12 0 -16 -10 -16 -35 0 -22 -8 -44 -20 -57 -21 -23 -28 -64 -9 -53 6 4 5 -2 -3 -14 -7 -12 -16 -21 -20 -21 -5 0 -8 -66 -8 -147 0 -138 1 -148 23 -171 12 -14 16 -22 10 -18 -21 12 -15 -18 7 -34 14 -10 20 -26 20 -52 0 -21 5 -38 10 -38 6 0 21 -10 33 -21 12 -12 16 -19 10 -15 -7 4 -13 2 -13 -4 0 -16 87 -100 105 -100 8 0 15 -4 15 -10 0 -5 4 -10 10 -10 9 0 35 -19 65 -47 8 -7 30 -13 49 -13 20 0 36 -4 36 -10 0 -5 7 -10 15 -10 8 0 15 -4 15 -10 0 -6 57 -10 150 -10 93 0 150 4 150 10 0 6 7 10 15 10 8 0 15 5 15 10 0 6 9 10 20 10 11 0 20 5 20 10 0 6 7 10 16 10 9 0 29 14 45 31 26 27 30 29 44 16 8 -9 15 -21 15 -27 0 -6 6 -18 14 -26 20 -19 132 -19 152 0 12 12 14 96 14 526 0 511 0 511 -25 535 -34 35 -96 35 -130 0 -14 -13 -25 -29 -25 -35 0 -6 -7 -18 -15 -26 -13 -13 -18 -11 -46 16 -22 21 -35 27 -40 19 -5 -8 -11 -5 -20 10 -8 11 -24 21 -36 21 -13 0 -23 5 -23 10 0 6 -20 10 -45 10 -32 0 -52 6 -68 20 -27 25 -89 24 -117 -2z m190 -188 c0 -5 9 -10 20 -10 11 0 20 -4 20 -10 0 -5 7 -10 15 -10 8 0 15 -5 15 -11 0 -6 7 -9 15 -5 8 3 15 2 15 -2 0 -11 46 -62 57 -62 5 0 18 -10 29 -22 10 -12 13 -18 7 -14 -20 11 -15 -8 7 -32 18 -20 20 -35 20 -202 0 -167 -2 -182 -20 -202 -12 -13 -20 -36 -20 -55 0 -26 -4 -33 -20 -33 -12 0 -20 -7 -20 -16 0 -23 -50 -64 -77 -64 -13 0 -23 -4 -23 -10 0 -5 -9 -10 -20 -10 -11 0 -20 -3 -20 -8 0 -4 -9 -13 -21 -20 -12 -8 -18 -9 -14 -3 4 8 -24 11 -89 11 -70 0 -96 -3 -96 -12 -1 -7 -9 -3 -19 10 -11 12 -24 22 -30 22 -6 0 -11 5 -11 10 0 6 -11 10 -25 10 -29 0 -115 79 -115 105 0 8 -4 15 -10 15 -5 0 -10 7 -10 15 0 16 -10 31 -44 65 -14 14 -16 20 -6 20 11 0 11 3 2 12 -8 8 -12 52 -12 133 0 107 2 124 20 143 11 12 20 28 20 37 0 8 4 15 8 15 5 0 14 16 22 35 8 19 17 35 22 35 4 0 8 5 8 11 0 15 26 39 43 39 8 0 22 9 32 20 10 11 24 20 32 20 7 0 13 5 13 10 0 6 14 10 30 10 17 0 30 5 30 10 0 6 43 10 110 10 67 0 110 -4 110 -10z"></path>
            <path id="ph3LvYXTn"
                d="M7034 3085 c0 -66 1 -92 3 -57 2 34 2 88 0 120 -2 31 -3 3 -3 -63z"></path>
            <path id="p3OlDqaIH"
                d="M8592 3660 c-15 -14 -35 -20 -67 -20 -25 0 -45 -4 -45 -10 0 -5 -7 -10 -15 -10 -17 0 -65 -43 -65 -59 0 -5 -6 -12 -12 -14 -10 -4 -10 -6 -1 -6 13 -1 -25 -81 -39 -81 -4 0 -8 -27 -8 -60 0 -33 -4 -60 -10 -60 -6 0 -11 -121 -12 -327 -3 -328 -3 -328 -86 -331 -68 -2 -87 -7 -107 -24 -42 -36 -28 -118 19 -118 9 0 16 -4 16 -10 0 -5 7 -10 15 -10 8 0 15 -5 15 -11 0 -7 19 -10 53 -8 28 2 58 0 65 -4 8 -6 12 -42 12 -123 0 -69 4 -114 10 -114 6 0 10 -7 10 -16 0 -28 27 -44 74 -44 25 0 46 5 46 10 0 6 9 10 20 10 19 0 20 7 20 138 0 129 1 138 21 150 12 8 18 9 14 3 -4 -8 25 -11 94 -11 61 0 101 4 101 10 0 6 7 10 15 10 8 0 15 4 15 9 0 5 10 13 21 16 15 5 18 9 9 15 -9 6 -8 10 5 17 14 8 15 14 6 30 -5 11 -7 24 -3 28 4 5 1 5 -5 1 -8 -4 -13 -2 -13 5 0 28 -36 38 -137 39 -63 0 -103 -4 -103 -10 0 -6 -8 -5 -20 2 -19 12 -20 24 -20 346 0 319 1 334 20 354 21 22 28 54 10 43 -18 -11 -10 9 14 38 17 20 32 27 60 27 20 0 36 5 36 10 0 6 9 10 20 10 11 0 20 -4 20 -10 0 -5 14 -10 30 -10 17 0 30 -4 30 -10 0 -5 23 -10 50 -10 28 0 50 4 50 9 0 5 10 11 22 15 18 4 20 8 10 18 -6 6 -11 23 -11 37 1 25 2 24 9 -4 8 -30 8 -30 9 3 0 17 -3 32 -9 32 -5 0 -10 5 -10 10 0 6 -11 22 -25 35 -19 20 -34 25 -75 25 -37 0 -57 5 -72 20 -12 11 -34 20 -48 20 -14 0 -36 -9 -48 -20z"></path>
            <path id="p136C3hv1e"
                d="M9550 3660 c-12 -17 -26 -20 -92 -20 -45 0 -78 -4 -78 -10 0 -5 -11 -10 -24 -10 -32 0 -56 -10 -56 -22 0 -15 -32 -37 -53 -38 -21 0 -147 -124 -147 -145 0 -8 -4 -15 -10 -15 -5 0 -10 -13 -10 -28 0 -16 -8 -34 -20 -42 -22 -16 -29 -66 -7 -54 6 4 2 -3 -10 -15 -16 -15 -23 -33 -23 -61 0 -22 -4 -40 -10 -40 -6 0 -10 -40 -10 -100 0 -60 4 -100 10 -100 6 0 10 -13 10 -30 0 -16 3 -30 8 -30 4 0 13 -9 20 -21 8 -12 9 -18 3 -14 -19 11 -12 -15 9 -37 11 -12 20 -32 20 -45 0 -13 5 -23 10 -23 6 0 10 -7 10 -15 0 -20 105 -125 125 -125 8 0 15 -4 15 -10 0 -5 5 -10 10 -10 6 0 20 -9 32 -20 12 -11 34 -20 50 -20 15 0 28 -4 28 -10 0 -5 9 -10 20 -10 11 0 20 -4 20 -10 0 -5 7 -10 15 -10 8 0 15 -4 15 -10 0 -6 57 -10 150 -10 93 0 150 4 150 10 0 6 7 10 15 10 8 0 15 5 15 10 0 6 14 10 30 10 17 0 30 5 30 10 0 6 8 10 19 10 10 0 29 13 42 30 16 20 33 30 52 30 16 0 27 5 27 14 0 7 12 22 28 32 38 25 73 67 61 74 -5 4 -1 14 11 25 11 10 20 26 20 37 0 10 5 18 10 18 6 0 10 7 10 15 0 9 9 25 20 37 11 12 20 33 19 47 0 24 -1 24 -9 6 -8 -20 -9 -20 -9 1 -1 11 8 30 19 42 17 18 20 35 20 106 0 75 -3 88 -22 107 -13 12 -17 19 -10 15 14 -8 17 10 2 19 -13 8 -13 42 0 47 6 2 2 13 -10 25 -12 14 -20 36 -20 58 0 19 -4 35 -9 35 -5 0 -13 9 -16 20 -3 11 -11 20 -16 20 -16 0 -39 27 -39 44 0 9 -7 16 -16 16 -21 0 -56 39 -47 53 3 6 1 7 -5 3 -7 -4 -12 -1 -12 8 0 9 -6 16 -12 16 -7 0 -24 9 -38 20 -27 21 -45 26 -35 9 4 -6 -2 -5 -14 3 -12 7 -21 16 -21 20 0 5 -9 8 -20 8 -11 0 -20 5 -20 10 0 6 -28 10 -65 10 -52 0 -70 4 -87 20 -12 11 -31 20 -43 20 -11 0 -27 -9 -35 -20z m150 -190 c0 -5 14 -10 30 -10 17 0 30 -4 30 -10 0 -5 6 -10 13 -10 6 0 21 -14 32 -30 14 -21 28 -30 48 -30 15 0 27 -6 27 -12 0 -7 9 -24 20 -38 11 -14 20 -35 20 -47 0 -13 5 -23 10 -23 6 0 10 -9 10 -20 0 -11 3 -20 8 -20 4 0 13 -9 20 -21 8 -12 10 -19 5 -16 -5 3 -9 -49 -9 -116 0 -84 -4 -122 -12 -125 -7 -2 -12 -12 -12 -23 0 -10 -4 -19 -10 -19 -5 0 -10 -12 -10 -26 0 -26 -43 -74 -65 -74 -6 0 -16 -13 -23 -29 -7 -17 -26 -36 -43 -43 -16 -7 -29 -16 -29 -20 0 -5 -13 -8 -30 -8 -16 0 -30 -3 -30 -8 0 -4 -9 -13 -21 -20 -12 -8 -18 -9 -14 -3 4 8 -24 11 -89 11 -67 0 -96 -4 -96 -12 0 -6 -10 -2 -23 10 -13 12 -33 22 -45 22 -26 0 -172 141 -172 165 0 8 -4 15 -10 15 -5 0 -10 11 -10 25 0 14 -4 25 -10 25 -5 0 -10 7 -10 15 0 8 -4 15 -10 15 -6 0 -10 45 -10 115 0 102 2 118 20 137 12 13 16 24 10 28 -6 4 -2 14 10 25 11 10 20 24 20 32 0 7 34 47 75 88 65 65 79 75 110 75 19 0 35 5 35 10 0 6 47 10 120 10 73 0 120 -4 120 -10z"></path>
            <path id="p14ZXwQJxd"
                d="M5533 3625 c-16 -18 -17 -39 -1 -29 7 4 3 -6 -9 -22 -20 -29 -21 -39 -22 -502 -1 -259 2 -472 6 -472 5 0 14 -9 21 -21 10 -15 10 -19 1 -14 -7 5 -10 3 -7 -6 3 -10 25 -15 71 -17 62 -3 67 -1 67 18 0 11 5 20 10 20 6 0 10 6 10 13 1 20 30 53 38 42 4 -6 28 -21 55 -34 26 -13 47 -28 47 -33 0 -4 9 -8 20 -8 11 0 20 -4 20 -10 0 -5 8 -10 18 -10 22 0 72 -22 72 -32 0 -5 63 -8 140 -8 87 0 140 4 140 10 0 6 7 10 15 10 8 0 15 5 15 10 0 6 9 10 20 10 11 0 20 5 20 10 0 6 8 10 17 10 9 0 28 10 41 23 14 12 22 16 18 10 -4 -7 -3 -13 3 -13 18 0 163 152 152 160 -8 4 -5 13 9 25 11 10 20 31 20 47 0 15 5 28 10 28 6 0 10 137 10 390 0 383 0 390 -20 390 -11 0 -20 5 -20 10 0 6 -18 10 -40 10 -22 0 -40 -4 -40 -10 0 -5 -9 -10 -20 -10 -13 0 -20 -7 -20 -20 0 -11 -4 -20 -10 -20 -6 0 -10 -123 -10 -348 0 -336 -1 -348 -20 -362 -11 -8 -20 -25 -20 -37 0 -26 -100 -133 -124 -133 -8 0 -18 -4 -21 -10 -4 -6 -58 -10 -131 -10 -76 0 -124 4 -124 10 0 6 -9 10 -20 10 -11 0 -20 5 -20 10 0 6 -11 10 -25 10 -26 0 -75 39 -75 60 0 12 -15 32 -42 58 -10 9 -18 21 -18 27 0 6 -9 17 -20 25 -12 8 -20 26 -20 42 0 15 -4 28 -10 28 -22 0 -30 88 -30 338 0 203 3 262 13 262 9 0 9 2 -1 9 -7 4 -14 17 -15 29 0 11 -5 18 -9 16 -4 -3 -8 2 -8 10 0 21 -109 22 -127 1z"></path>
            <path id="p15gaumKG0"
                d="M2140 3550 c0 -5 -22 -10 -50 -10 -39 0 -50 -3 -50 -16 0 -9 -13 -29 -30 -44 -30 -28 -42 -58 -17 -44 6 4 2 -3 -10 -15 -13 -12 -23 -31 -23 -41 0 -11 -4 -20 -10 -20 -5 0 -10 -7 -10 -15 0 -9 -9 -25 -20 -37 -21 -23 -28 -64 -9 -53 6 4 5 -2 -3 -14 -7 -12 -16 -21 -20 -21 -5 0 -8 -18 -8 -40 0 -22 -4 -40 -10 -40 -5 0 -10 -16 -10 -35 0 -22 -8 -44 -20 -57 -12 -13 -20 -36 -20 -55 0 -18 -4 -33 -10 -33 -5 0 -10 -13 -10 -30 0 -16 -4 -30 -10 -30 -5 0 -10 -9 -10 -20 0 -11 5 -20 10 -20 6 0 10 -17 10 -37 0 -33 8 -45 75 -110 53 -51 82 -73 100 -73 14 0 25 -4 25 -10 0 -6 32 -10 76 -10 78 0 104 11 104 44 0 9 5 16 10 16 6 0 10 14 10 30 0 17 5 30 10 30 6 0 10 9 10 21 0 11 5 17 10 14 6 -3 10 1 10 10 0 9 -4 13 -10 10 -5 -3 -10 -4 -10 -2 0 11 32 66 45 77 8 7 15 23 15 37 0 13 11 35 25 49 26 26 26 26 44 5 10 -12 23 -21 28 -21 6 0 18 -10 29 -22 10 -12 13 -18 7 -14 -25 14 -13 -16 17 -44 17 -15 30 -33 30 -39 0 -6 14 -25 30 -43 17 -17 30 -42 30 -54 0 -13 5 -24 10 -24 6 0 10 -7 10 -16 0 -8 18 -33 40 -54 22 -21 40 -46 40 -54 0 -9 5 -16 10 -16 6 0 10 -8 10 -19 0 -10 13 -29 30 -42 19 -15 30 -33 30 -49 0 -14 9 -32 20 -40 11 -8 20 -20 20 -26 0 -6 17 -29 38 -51 35 -37 43 -49 75 -105 6 -13 14 -25 17 -28 3 -3 16 -22 30 -42 14 -21 29 -38 33 -38 5 0 6 -4 2 -9 -3 -6 9 -25 27 -43 18 -18 39 -45 47 -61 8 -15 18 -27 23 -27 4 0 8 -9 8 -20 0 -11 6 -20 13 -20 8 0 22 -10 33 -22 10 -12 13 -18 7 -14 -7 4 -13 2 -13 -4 0 -12 45 -60 57 -60 4 0 17 -14 28 -30 11 -16 23 -30 28 -30 4 0 7 -8 7 -18 0 -10 9 -24 20 -32 11 -8 20 -21 20 -28 0 -7 32 -45 70 -83 39 -38 70 -76 70 -84 0 -8 9 -20 20 -27 11 -7 20 -18 20 -24 0 -19 70 -83 84 -78 7 3 19 -2 26 -11 7 -8 21 -15 31 -15 11 0 19 -4 19 -10 0 -5 9 -10 20 -10 11 0 20 -4 20 -10 0 -5 7 -10 15 -10 8 0 15 -5 15 -11 0 -6 30 -10 85 -8 58 1 90 -2 101 -11 9 -8 18 -10 22 -4 12 16 46 40 38 27 -4 -7 -2 -13 3 -13 6 0 11 5 11 10 0 6 7 10 15 10 17 0 20 35 4 46 -8 4 -7 9 2 15 11 7 11 9 -1 9 -13 0 -13 1 0 10 10 6 11 10 3 10 -7 0 -13 5 -13 11 0 6 -13 24 -30 39 -17 15 -30 33 -30 39 0 7 -31 43 -70 81 -49 48 -70 76 -70 94 0 17 -8 28 -30 38 -16 7 -30 19 -30 26 0 23 -24 55 -92 123 -38 38 -68 73 -68 80 0 6 -13 24 -30 39 -17 15 -30 34 -30 42 0 22 -53 86 -100 121 -14 10 -19 15 -12 12 22 -11 13 11 -18 43 -16 18 -30 37 -30 43 0 6 -18 28 -40 49 -22 21 -40 44 -40 50 0 7 -14 25 -30 40 -17 15 -30 33 -30 39 0 13 -14 32 -42 59 -10 9 -18 21 -18 27 0 6 -9 17 -20 25 -11 8 -20 21 -20 28 0 7 -18 31 -40 52 -26 25 -40 47 -40 64 0 15 -6 26 -13 26 -8 0 -22 10 -33 22 -10 12 -13 18 -6 14 19 -11 14 8 -8 32 -11 12 -20 26 -20 33 0 6 -13 24 -30 39 -16 15 -30 32 -30 37 0 20 -26 63 -38 63 -15 0 -42 24 -42 37 0 22 -26 63 -40 63 -8 0 -21 9 -28 21 -8 12 -9 18 -3 14 6 -3 11 -2 11 4 0 5 -5 11 -10 13 -6 2 -12 13 -13 25 0 12 -5 19 -9 17 -4 -3 -8 0 -8 6 0 7 -13 25 -30 40 -16 15 -30 37 -30 48 0 10 -13 33 -30 50 -16 18 -30 38 -30 45 0 7 -9 19 -20 27 -11 8 -20 20 -20 27 0 8 -29 43 -65 78 -45 46 -72 65 -90 65 -14 0 -25 5 -25 10 0 6 -33 10 -80 10 -47 0 -80 -4 -80 -10z"></path>
            <path id="pXCgDonI"
                d="M5694 3290 c0 -146 2 -205 3 -132 2 72 2 192 0 265 -1 72 -3 13 -3 -133z"></path>
        </g>
    </g>
</svg>
    